<svg xmlns="http://www.w3.org/2000/svg" xmlns:xlink="http://www.w3.org/1999/xlink" width="1366" zoomAndPan="magnify" viewBox="0 0 1024.5 576" height="768" preserveAspectRatio="xMidYMid meet" version="1.0"><defs><clipPath id="0c4319f0cd"><path d="M 0 0.140625 L 1024 0.140625 L 1024 575.859375 L 0 575.859375 Z M 0 0.140625 " clip-rule="nonzero"/></clipPath><clipPath id="1fc544396b"><path d="M 68.632812 213 L 177.382812 213 L 177.382812 332 L 68.632812 332 Z M 68.632812 213 " clip-rule="nonzero"/></clipPath><clipPath id="f87f5549c2"><path d="M 177.203125 281.210938 L 175.722656 278.597656 C 149.722656 238.773438 88.398438 221.136719 68.632812 213.460938 L 68.632812 331.492188 C 105.320312 302.53125 135.3125 285.609375 177.203125 281.210938 " clip-rule="nonzero"/></clipPath><clipPath id="dbadd293c8"><path d="M 75.363281 192.035156 L 317.820312 192.035156 L 317.820312 412.035156 L 75.363281 412.035156 Z M 75.363281 192.035156 " clip-rule="nonzero"/></clipPath><clipPath id="9efe18ba8f"><path d="M 75.363281 337.726562 L 243.066406 412.035156 L 317.820312 337.28125 L 317.820312 192.980469 C 315.753906 203.128906 303.269531 208.917969 294.023438 224.363281 C 281.859375 244.753906 280.558594 264.59375 280.46875 281.785156 L 280.46875 279.769531 C 280.46875 312.328125 254.695312 336.425781 222.101562 337.15625 C 196.597656 337.726562 156.238281 325.613281 140.605469 324.082031 C 104.375 320.539062 75.363281 337.691406 75.363281 337.691406 " clip-rule="nonzero"/></clipPath><clipPath id="8daac88674"><path d="M 73.121094 162.859375 L 317 162.859375 L 317 249 L 73.121094 249 Z M 73.121094 162.859375 " clip-rule="nonzero"/></clipPath><clipPath id="bd06e86733"><path d="M 239.472656 238.914062 C 229.28125 251.613281 214.054688 249.957031 194.890625 241.335938 C 190.132812 239.179688 182.582031 236.527344 177.917969 234.921875 L 146.496094 225.535156 C 111.515625 216.457031 79.316406 211.96875 73.757812 211.253906 L 73.171875 211.164062 L 205.664062 162.859375 L 205.664062 187.777344 L 316.835938 187.777344 C 314.988281 190.46875 311.992188 193.972656 307.492188 197.023438 C 307.492188 197.023438 269.285156 207.707031 258.332031 213.089844 C 244.046875 220.140625 246.292969 230.332031 239.433594 238.949219 " clip-rule="nonzero"/></clipPath><clipPath id="96b38316bb"><path d="M 412.835938 190 L 578.917969 190 L 578.917969 295 L 412.835938 295 Z M 412.835938 190 " clip-rule="nonzero"/></clipPath><clipPath id="e506df531f"><path d="M 578.828125 190.417969 L 544.832031 294.21875 L 519.058594 294.21875 L 496.207031 223.917969 L 472.640625 294.21875 L 446.960938 294.21875 L 412.835938 190.417969 L 437.753906 190.417969 L 461.191406 263.371094 L 485.664062 190.417969 L 507.925781 190.417969 L 531.683594 264.007812 L 555.835938 190.417969 L 578.828125 190.417969 " clip-rule="nonzero"/></clipPath><clipPath id="c9e4a513bd"><path d="M 584 188.617188 L 699 188.617188 L 699 296.15625 L 584 296.15625 Z M 584 188.617188 " clip-rule="nonzero"/></clipPath><clipPath id="0a7a29f9ea"><path d="M 657.890625 271.328125 C 662.828125 268.496094 666.730469 264.582031 669.523438 259.519531 C 672.300781 254.445312 673.742188 248.746094 673.742188 242.316406 C 673.742188 235.902344 672.339844 230.152344 669.523438 225.128906 C 666.691406 220.089844 662.828125 216.136719 657.890625 213.320312 C 652.945312 210.488281 647.382812 209.097656 641.277344 209.097656 C 635.167969 209.097656 629.609375 210.488281 624.660156 213.320312 C 619.726562 216.136719 615.824219 220.050781 613.03125 225.128906 C 610.25 230.191406 608.820312 235.902344 608.820312 242.316406 C 608.820312 248.746094 610.210938 254.484375 613.03125 259.519531 C 615.859375 264.542969 619.726562 268.496094 624.660156 271.328125 C 629.609375 274.148438 635.128906 275.550781 641.277344 275.550781 C 647.421875 275.550781 652.945312 274.148438 657.890625 271.328125 M 612.136719 289.054688 C 603.480469 284.4375 596.695312 278.011719 591.796875 269.835938 C 586.902344 261.675781 584.441406 252.507812 584.441406 242.316406 C 584.441406 232.128906 586.902344 222.972656 591.796875 214.796875 C 596.695312 206.625 603.480469 200.25 612.136719 195.582031 C 620.808594 190.914062 630.5 188.617188 641.277344 188.617188 C 652.050781 188.617188 661.753906 190.953125 670.324219 195.582031 C 678.90625 200.210938 685.730469 206.625 690.664062 214.796875 C 695.601562 222.972656 698.074219 232.128906 698.074219 242.316406 C 698.074219 252.507812 695.601562 261.675781 690.664062 269.835938 C 685.730469 278.011719 678.945312 284.386719 670.324219 289.054688 C 661.703125 293.722656 652.050781 296.015625 641.277344 296.015625 C 630.5 296.015625 620.757812 293.683594 612.136719 289.054688 " clip-rule="nonzero"/></clipPath><clipPath id="2d443d0584"><path d="M 716.167969 190.417969 L 740.179688 190.417969 L 740.179688 274.644531 L 716.167969 274.644531 Z M 716.167969 274.644531 L 792.273438 274.644531 L 792.273438 294.21875 L 716.167969 294.21875 Z M 716.167969 274.644531 " clip-rule="nonzero"/></clipPath><clipPath id="45786ea8ca"><path d="M 811 190 L 906.710938 190 L 906.710938 295 L 811 295 Z M 811 190 " clip-rule="nonzero"/></clipPath><clipPath id="b77e056a2f"><path d="M 906.710938 190.417969 L 906.710938 294.21875 L 886.957031 294.21875 L 835.195312 231.183594 L 835.195312 294.21875 L 811.492188 294.21875 L 811.492188 190.417969 L 831.371094 190.417969 L 883.003906 253.449219 L 883.003906 190.417969 L 906.710938 190.417969 " clip-rule="nonzero"/></clipPath><clipPath id="19c16a4b18"><path d="M 931.320312 190.417969 L 955.335938 190.417969 L 955.335938 294.21875 L 931.320312 294.21875 Z M 931.320312 190.417969 " clip-rule="nonzero"/></clipPath><clipPath id="01a7f1e111"><path d="M 412.835938 332.296875 L 497.304688 332.296875 L 497.304688 413.679688 L 412.835938 413.679688 Z M 412.835938 332.296875 " clip-rule="nonzero"/></clipPath><clipPath id="ae673744ac"><path d="M 469.097656 396.859375 C 473.265625 394.527344 476.542969 391.25 478.929688 387.027344 C 481.300781 382.808594 482.511719 378.089844 482.511719 372.886719 C 482.511719 367.671875 481.300781 362.964844 478.929688 358.742188 C 476.542969 354.523438 473.265625 351.246094 469.097656 348.910156 C 464.914062 346.566406 460.210938 345.355469 454.992188 345.355469 C 449.789062 345.355469 445.074219 346.527344 440.902344 348.910156 C 436.71875 351.285156 433.441406 354.5625 431.070312 358.742188 C 428.6875 362.914062 427.476562 367.671875 427.476562 372.886719 C 427.476562 378.089844 428.6875 382.808594 431.070312 387.027344 C 433.441406 391.25 436.71875 394.527344 440.902344 396.859375 C 445.074219 399.195312 449.789062 400.40625 454.992188 400.40625 C 460.210938 400.40625 464.914062 399.230469 469.097656 396.859375 M 433.441406 407.941406 C 427.027344 404.445312 421.992188 399.640625 418.320312 393.492188 C 414.632812 387.335938 412.835938 380.472656 412.835938 372.886719 C 412.835938 365.296875 414.671875 358.375 418.320312 352.226562 C 421.953125 346.082031 427.027344 341.273438 433.441406 337.816406 C 439.871094 334.363281 447.050781 332.601562 455.042969 332.601562 C 463.027344 332.601562 470.21875 334.363281 476.632812 337.816406 C 483.0625 341.273438 488.085938 346.082031 491.71875 352.1875 C 495.355469 358.285156 497.203125 365.210938 497.203125 372.886719 C 497.203125 380.5625 495.355469 387.472656 491.71875 393.582031 C 488.085938 399.691406 483.0625 404.484375 476.632812 407.941406 C 470.21875 411.410156 463.027344 413.15625 455.042969 413.15625 C 447.050781 413.15625 439.871094 411.410156 433.441406 407.941406 " clip-rule="nonzero"/></clipPath><clipPath id="4a30c02027"><path d="M 512 333 L 590 333 L 590 412 L 512 412 Z M 512 333 " clip-rule="nonzero"/></clipPath><clipPath id="48ef412908"><path d="M 546.183594 399.730469 C 551.933594 399.730469 556.960938 398.65625 561.359375 396.453125 C 565.757812 394.257812 569.085938 391.109375 571.421875 387.066406 C 573.753906 383.023438 574.914062 378.265625 574.914062 372.925781 C 574.914062 367.582031 573.753906 362.824219 571.421875 358.78125 C 569.085938 354.738281 565.71875 351.601562 561.359375 349.398438 C 556.996094 347.203125 551.933594 346.121094 546.183594 346.121094 L 527.144531 346.121094 L 527.144531 399.730469 L 546.183594 399.730469 M 512.644531 333.738281 L 546.859375 333.738281 C 555.210938 333.738281 562.621094 335.34375 569.125 338.582031 C 575.640625 341.808594 580.664062 346.386719 584.210938 352.316406 C 587.753906 358.246094 589.554688 365.070312 589.554688 372.835938 C 589.554688 380.601562 587.753906 387.421875 584.210938 393.351562 C 580.664062 399.28125 575.589844 403.859375 569.125 407.136719 C 562.660156 410.414062 555.210938 411.984375 546.859375 411.984375 L 512.644531 411.984375 L 512.644531 333.738281 " clip-rule="nonzero"/></clipPath><clipPath id="6d7326bc84"><path d="M 635.078125 333 L 693.175781 333 L 693.175781 413 L 635.078125 413 Z M 635.078125 333 " clip-rule="nonzero"/></clipPath><clipPath id="c2f6f1c3fe"><path d="M 650.433594 345.902344 L 650.433594 369.734375 L 688.242188 369.734375 L 688.242188 382.042969 L 650.433594 382.042969 L 650.433594 412.035156 L 635.894531 412.035156 L 635.894531 333.738281 L 693.050781 333.738281 L 693.050781 345.941406 L 650.433594 345.902344 " clip-rule="nonzero"/></clipPath><clipPath id="e48b48987e"><path d="M 709 333 L 768 333 L 768 413 L 709 413 Z M 709 333 " clip-rule="nonzero"/></clipPath><clipPath id="c8562a86d7"><path d="M 767.800781 399.816406 L 767.800781 412.035156 L 709.078125 412.035156 L 709.078125 333.738281 L 766.234375 333.738281 L 766.234375 345.941406 L 723.617188 345.941406 L 723.617188 366.28125 L 761.425781 366.28125 L 761.425781 378.265625 L 723.617188 378.265625 L 723.617188 399.871094 L 767.800781 399.816406 " clip-rule="nonzero"/></clipPath><clipPath id="c16fdeaacf"><path d="M 785.488281 333 L 852.832031 333 L 852.832031 413 L 785.488281 413 Z M 785.488281 333 " clip-rule="nonzero"/></clipPath><clipPath id="e92dbe793f"><path d="M 831.917969 350.035156 C 828.640625 347.332031 823.835938 345.992188 817.496094 345.992188 L 800.484375 345.992188 L 800.484375 377.195312 L 817.496094 377.195312 C 823.835938 377.195312 828.640625 375.84375 831.917969 373.101562 C 835.195312 370.375 836.855469 366.511719 836.855469 361.523438 C 836.855469 356.539062 835.195312 352.675781 831.917969 349.984375 M 837.160156 411.945312 L 821.183594 389.003906 C 820.507812 389.09375 819.523438 389.09375 818.171875 389.09375 L 800.484375 389.09375 L 800.484375 411.894531 L 785.933594 411.894531 L 785.933594 333.738281 L 818.171875 333.738281 C 824.957031 333.738281 830.886719 334.859375 835.910156 337.105469 C 840.933594 339.347656 844.800781 342.535156 847.488281 346.707031 C 850.191406 350.875 851.53125 355.824219 851.53125 361.5625 C 851.53125 367.453125 850.089844 372.527344 847.222656 376.789062 C 844.351562 381.046875 840.222656 384.195312 834.878906 386.300781 L 852.832031 412.035156 L 837.160156 411.945312 " clip-rule="nonzero"/></clipPath><clipPath id="9446aefc70"><path d="M 869.460938 333 L 956 333 L 956 413 L 869.460938 413 Z M 869.460938 333 " clip-rule="nonzero"/></clipPath><clipPath id="4434fe2311"><path d="M 941.601562 412.035156 L 941.511719 360.132812 L 915.777344 403.09375 L 909.273438 403.09375 L 883.539062 360.808594 L 883.539062 412.035156 L 869.679688 412.035156 L 869.679688 333.738281 L 881.664062 333.738281 L 912.78125 385.636719 L 943.308594 333.738281 L 955.296875 333.738281 L 955.386719 412.035156 L 941.601562 412.035156 " clip-rule="nonzero"/></clipPath></defs><g clip-path="url(#0c4319f0cd)"><path fill="#ffffff" d="M 0 0.140625 L 1024 0.140625 L 1024 575.859375 L 0 575.859375 Z M 0 0.140625 " fill-opacity="1" fill-rule="nonzero"/><path fill="#ffffff" d="M 0 0.140625 L 1024 0.140625 L 1024 575.859375 L 0 575.859375 Z M 0 0.140625 " fill-opacity="1" fill-rule="nonzero"/><rect x="-102.45" width="1229.4" fill="#ffd600" y="-57.6" height="691.2" fill-opacity="1"/><rect x="-102.45" width="1229.4" fill="#ffd600" y="-57.6" height="691.2" fill-opacity="1"/><rect x="-102.45" width="1229.4" fill="#ffd600" y="-57.6" height="691.2" fill-opacity="1"/></g><g clip-path="url(#1fc544396b)"><g clip-path="url(#f87f5549c2)"><path fill="#000000" d="M 46.1875 140.402344 L 340.277344 140.402344 L 340.277344 434.492188 L 46.1875 434.492188 Z M 46.1875 140.402344 " fill-opacity="1" fill-rule="nonzero"/></g></g><g clip-path="url(#dbadd293c8)"><g clip-path="url(#9efe18ba8f)"><path fill="#000000" d="M 46.1875 140.402344 L 340.277344 140.402344 L 340.277344 434.492188 L 46.1875 434.492188 Z M 46.1875 140.402344 " fill-opacity="1" fill-rule="nonzero"/></g></g><g clip-path="url(#8daac88674)"><g clip-path="url(#bd06e86733)"><path fill="#000000" d="M 46.1875 140.402344 L 340.277344 140.402344 L 340.277344 434.492188 L 46.1875 434.492188 Z M 46.1875 140.402344 " fill-opacity="1" fill-rule="nonzero"/></g></g><g clip-path="url(#96b38316bb)"><g clip-path="url(#e506df531f)"><path fill="#000000" d="M 390.390625 166.175781 L 978.554688 166.175781 L 978.554688 435.5625 L 390.390625 435.5625 Z M 390.390625 166.175781 " fill-opacity="1" fill-rule="nonzero"/></g></g><g clip-path="url(#c9e4a513bd)"><g clip-path="url(#0a7a29f9ea)"><path fill="#000000" d="M 390.390625 166.175781 L 978.554688 166.175781 L 978.554688 435.5625 L 390.390625 435.5625 Z M 390.390625 166.175781 " fill-opacity="1" fill-rule="nonzero"/></g></g><g clip-path="url(#2d443d0584)"><path fill="#000000" d="M 390.390625 166.175781 L 978.554688 166.175781 L 978.554688 435.5625 L 390.390625 435.5625 Z M 390.390625 166.175781 " fill-opacity="1" fill-rule="nonzero"/></g><g clip-path="url(#45786ea8ca)"><g clip-path="url(#b77e056a2f)"><path fill="#000000" d="M 390.390625 166.175781 L 978.554688 166.175781 L 978.554688 435.5625 L 390.390625 435.5625 Z M 390.390625 166.175781 " fill-opacity="1" fill-rule="nonzero"/></g></g><g clip-path="url(#19c16a4b18)"><path fill="#000000" d="M 390.390625 166.175781 L 978.554688 166.175781 L 978.554688 435.5625 L 390.390625 435.5625 Z M 390.390625 166.175781 " fill-opacity="1" fill-rule="nonzero"/></g><g clip-path="url(#01a7f1e111)"><g clip-path="url(#ae673744ac)"><path fill="#000000" d="M 390.390625 166.175781 L 978.554688 166.175781 L 978.554688 435.5625 L 390.390625 435.5625 Z M 390.390625 166.175781 " fill-opacity="1" fill-rule="nonzero"/></g></g><g clip-path="url(#4a30c02027)"><g clip-path="url(#48ef412908)"><path fill="#000000" d="M 390.390625 166.175781 L 978.554688 166.175781 L 978.554688 435.5625 L 390.390625 435.5625 Z M 390.390625 166.175781 " fill-opacity="1" fill-rule="nonzero"/></g></g><g clip-path="url(#6d7326bc84)"><g clip-path="url(#c2f6f1c3fe)"><path fill="#000000" d="M 390.390625 166.175781 L 978.554688 166.175781 L 978.554688 435.5625 L 390.390625 435.5625 Z M 390.390625 166.175781 " fill-opacity="1" fill-rule="nonzero"/></g></g><g clip-path="url(#e48b48987e)"><g clip-path="url(#c8562a86d7)"><path fill="#000000" d="M 390.390625 166.175781 L 978.554688 166.175781 L 978.554688 435.5625 L 390.390625 435.5625 Z M 390.390625 166.175781 " fill-opacity="1" fill-rule="nonzero"/></g></g><g clip-path="url(#c16fdeaacf)"><g clip-path="url(#e92dbe793f)"><path fill="#000000" d="M 390.390625 166.175781 L 978.554688 166.175781 L 978.554688 435.5625 L 390.390625 435.5625 Z M 390.390625 166.175781 " fill-opacity="1" fill-rule="nonzero"/></g></g><g clip-path="url(#9446aefc70)"><g clip-path="url(#4434fe2311)"><path fill="#000000" d="M 390.390625 166.175781 L 978.554688 166.175781 L 978.554688 435.5625 L 390.390625 435.5625 Z M 390.390625 166.175781 " fill-opacity="1" fill-rule="nonzero"/></g></g></svg>