<svg xmlns="http://www.w3.org/2000/svg" xmlns:xlink="http://www.w3.org/1999/xlink" width="1024" zoomAndPan="magnify" viewBox="0 0 768 767.999994" height="1024" preserveAspectRatio="xMidYMid meet" version="1.0"><defs><clipPath id="24453f5bc6"><path d="M 0 171.953125 L 768 171.953125 L 768 596.007812 L 0 596.007812 Z M 0 171.953125 " clip-rule="nonzero"/></clipPath></defs><rect x="-76.8" width="921.6" fill="#ffffff" y="-76.799999" height="921.599993" fill-opacity="1"/><rect x="-76.8" width="921.6" fill="#ffffff" y="-76.799999" height="921.599993" fill-opacity="1"/><g clip-path="url(#24453f5bc6)"><path fill="#000000" d="M 735.691406 230.15625 C 737.632812 228.574219 743.449219 231.550781 744.289062 233.859375 C 745.054688 235.976562 743.484375 240.933594 741.136719 243.265625 C 739.097656 245.289062 733.386719 245.308594 731.890625 242.175781 C 730.414062 239.078125 733.007812 232.328125 735.691406 230.15625 Z M 3.253906 399.867188 C 3.863281 413.085938 3.617188 417.382812 3.816406 420.136719 C 4.105469 424.066406 7.421875 422.65625 10.164062 423.640625 C 12.59375 426.105469 18.875 431.691406 36.847656 435.25 C 59.957031 439.828125 53.707031 438.519531 57.460938 441.496094 C 72.503906 453.441406 143.117188 467.859375 169.429688 462.09375 C 171.46875 461.648438 174.046875 463.03125 176.125 463.394531 C 177.304688 469.726562 178.441406 476.378906 178.660156 483.847656 C 179.09375 498.085938 183.210938 519.136719 183.238281 524.464844 C 183.289062 532.347656 179.921875 548.945312 177.703125 553.832031 C 176.515625 556.457031 171.820312 563.367188 170.425781 565.785156 C 168.589844 568.953125 165.742188 579.34375 165.054688 581.5 C 164.574219 582.980469 165.019531 584.054688 166.21875 584.320312 C 168.300781 584.78125 191.125 584.109375 192.535156 583.519531 C 196.765625 581.738281 198.359375 578.222656 199.589844 574.101562 C 200.375 571.457031 203.285156 565 205.84375 562.546875 C 207.625 560.835938 209.976562 556.359375 210.300781 553.449219 C 210.457031 552.039062 209.375 543.925781 209.742188 542.246094 C 210.109375 540.566406 209.566406 526.148438 211.914062 521.457031 C 213.089844 519.113281 215.574219 514.492188 216.703125 509.152344 C 218.964844 513.429688 221.503906 517.519531 221.40625 522.730469 C 221.203125 533.980469 227.308594 551.230469 223.121094 561.988281 C 218.808594 573.082031 213.078125 576.742188 211.90625 590.453125 C 211.625 593.738281 238.007812 590.167969 241.140625 588.675781 C 244.175781 587.222656 246.863281 584.609375 247.007812 578.480469 C 247.132812 573.25 249.742188 567.785156 251.308594 565.535156 C 256.261719 558.40625 249.648438 547.527344 251.976562 536.667969 C 252.382812 534.785156 255.546875 512.859375 257.8125 506.488281 C 259.84375 500.78125 260.363281 487.023438 265.925781 475.246094 C 266.476562 474.082031 267.988281 471.328125 270.769531 470.019531 C 276.988281 468.734375 282.019531 471.574219 287.046875 472.535156 C 323.371094 479.503906 417.144531 487.597656 442.355469 485.285156 C 510.46875 479.039062 558.449219 458.390625 560.878906 458.972656 C 564.917969 458.566406 577.601562 496.507812 581.417969 507.074219 C 588.042969 525.382812 587.707031 543.914062 583.644531 554.949219 C 582.492188 558.074219 561.367188 585.332031 566.851562 585.652344 C 579.546875 586.390625 598.421875 587.691406 600.726562 583.382812 C 603.175781 578.800781 603.367188 575.511719 604.6875 571.171875 C 605.003906 570.148438 605.003906 570.148438 606.3125 568.921875 C 611.890625 563.699219 612.574219 565.046875 613.570312 559.761719 C 613.570312 559.761719 616.5 535.558594 621.3125 523.859375 C 621.3125 523.859375 629.261719 500.269531 627.523438 493.40625 C 626.921875 491.0625 626.113281 488.59375 625.1875 486.046875 C 636.304688 495.652344 650.4375 496.828125 656.070312 510.070312 C 659.664062 518.53125 657.558594 537.003906 658.777344 545.980469 C 659.695312 552.789062 659.988281 559.964844 658.589844 566.8125 C 657.402344 572.644531 641.84375 588.003906 643.03125 594.273438 C 643.398438 596.195312 663.949219 596.210938 670.792969 595.792969 C 674.417969 595.5625 678.683594 584.835938 679.042969 583.964844 C 679.800781 582.148438 681.894531 579.175781 683.230469 576.796875 C 686.015625 571.816406 689.183594 573.65625 689.183594 569.042969 C 689.183594 563.433594 687.46875 551.65625 688.675781 544.703125 C 690.210938 535.816406 691.800781 534.933594 694.332031 526.257812 C 697.800781 514.417969 698.980469 515.46875 701.089844 502.859375 C 703.015625 491.3125 694.445312 472.167969 697.03125 460.742188 C 701.429688 441.28125 713.316406 434.9375 720.03125 413.851562 C 733.890625 387.925781 738.378906 346.46875 741.40625 330.5 C 744.402344 314.699219 739.46875 289.875 732.882812 272.199219 C 735.984375 269.207031 739.0625 265.113281 741.996094 261.035156 C 745.199219 261.777344 747.511719 261.941406 750.113281 260.992188 C 759.816406 257.464844 766.121094 248.511719 767.339844 243.105469 C 768.5625 237.699219 767.699219 231.164062 767.753906 230.59375 C 766.007812 233.734375 765.617188 235.394531 764.554688 237.292969 C 762.671875 240.65625 760.609375 243.855469 757.84375 246.628906 C 756.515625 247.949219 755.113281 249.28125 753.484375 250.269531 C 752.664062 250.765625 751.78125 251.164062 750.863281 251.464844 C 750.28125 251.648438 748.253906 251.777344 747.90625 252.171875 C 749.527344 250.347656 751.234375 248.894531 752.320312 246.652344 C 755.417969 240.253906 756.425781 231.875 751.53125 226.066406 C 746.28125 219.84375 735.863281 218.140625 729.625 224 C 724.128906 229.171875 720.984375 238.496094 724.183594 245.492188 C 724.914062 247.09375 725.40625 248.609375 726.445312 250.121094 C 727.300781 251.363281 729.730469 254.632812 730.867188 255.65625 C 731.164062 255.933594 730.800781 256.339844 729.859375 256.898438 C 729.5625 257.074219 726.839844 258.953125 726.882812 259.015625 C 714.382812 237.21875 680.304688 210.855469 654.40625 200.332031 C 601.6875 178.894531 561.808594 171.699219 505.152344 172.976562 C 460.554688 173.984375 409.847656 170.34375 366.730469 172.832031 C 321.035156 175.472656 283.878906 183.070312 240.652344 199.71875 C 221.890625 206.945312 203.023438 213.351562 184.140625 220.160156 C 169.644531 225.382812 148.03125 239.703125 133.867188 245.199219 C 129.898438 246.742188 107.921875 241.089844 88.03125 240.484375 C 78.601562 240.195312 61.589844 237.304688 52.285156 228.117188 C 46.066406 228.464844 53.152344 246.621094 60.691406 258.566406 C 46.410156 256.003906 32.023438 246.664062 29.335938 249.71875 C 29.316406 249.734375 44.339844 296.414062 68.71875 312.359375 C 70.757812 319.402344 57.257812 350.949219 52.273438 356.054688 C 38.351562 370.304688 27.347656 376.4375 9.761719 383.039062 C 7.152344 382.417969 7.457031 381.734375 4.289062 381.539062 C -1.523438 381.171875 0.257812 385.503906 0.257812 385.503906 C 0.257812 385.503906 2.96875 393.730469 3.253906 399.867188 " fill-opacity="1" fill-rule="nonzero"/></g></svg>