<svg xmlns="http://www.w3.org/2000/svg" xmlns:xlink="http://www.w3.org/1999/xlink" width="1024" zoomAndPan="magnify" viewBox="0 0 768 767.999994" height="1024" preserveAspectRatio="xMidYMid meet" version="1.0"><defs><clipPath id="5e53704daa"><path d="M 1 105.289062 L 766 105.289062 L 766 662.539062 L 1 662.539062 Z M 1 105.289062 " clip-rule="nonzero"/></clipPath></defs><g clip-path="url(#5e53704daa)"><path fill="#000000" d="M 761.96875 469.363281 C 767.59375 486.128906 766.46875 505.253906 758.253906 520.894531 C 757.917969 515.378906 757.578125 509.867188 757.355469 504.242188 C 757.242188 501.878906 757.015625 499.40625 756.226562 497.152344 C 754.539062 492.652344 750.261719 489.730469 746.324219 486.917969 C 706.261719 457.664062 700.070312 404.898438 701.644531 358.65625 C 702.660156 328.957031 698.496094 300.039062 687.578125 272.140625 C 686.789062 270.113281 685.554688 268.203125 683.976562 265.386719 C 682.738281 267.640625 682.0625 268.539062 681.726562 269.550781 C 674.75 295.652344 669.683594 322.203125 668.109375 349.207031 C 666.984375 368.21875 667.882812 387.234375 667.882812 406.359375 C 667.882812 423.347656 672.835938 438.875 681.613281 453.164062 C 684.988281 458.5625 685.328125 463.851562 683.527344 469.816406 C 681.953125 474.765625 680.824219 479.941406 680.375 485.117188 C 679.8125 493.328125 679.8125 501.542969 679.8125 509.753906 C 679.699219 527.757812 679.363281 545.757812 679.8125 563.644531 C 680.152344 574.671875 682.625 585.359375 688.929688 595.035156 C 691.742188 599.3125 689.714844 601.5625 684.765625 600.4375 C 680.824219 599.421875 679.25 601 679.363281 604.488281 C 679.363281 607.636719 679.476562 610.898438 680.601562 613.824219 C 684.203125 623.5 681.164062 630.699219 670.808594 631.824219 C 661.242188 632.839844 651.453125 632.050781 641.773438 631.261719 C 637.160156 630.925781 636.148438 627.777344 638.285156 623.386719 C 639.636719 620.6875 641.660156 618.324219 642.898438 615.625 C 646.613281 607.523438 651.226562 599.648438 653.367188 591.097656 C 659.105469 568.144531 658.207031 544.632812 657.644531 521.230469 C 657.53125 518.417969 655.953125 515.605469 654.828125 512.792969 C 652.128906 506.265625 647.964844 499.96875 646.613281 493.214844 C 644.363281 482.078125 641.210938 471.503906 636.261719 461.265625 C 634.347656 457.214844 633.558594 452.714844 631.871094 448.550781 C 630.859375 445.851562 629.394531 443.375 627.933594 440.449219 C 621.40625 444.386719 622.867188 449.449219 623.878906 454.289062 C 624.441406 457.550781 626.132812 460.8125 625.90625 464.078125 C 624.894531 480.277344 622.753906 496.480469 622.191406 512.679688 C 621.515625 530.007812 621.855469 547.445312 622.078125 564.882812 C 622.078125 568.148438 623.09375 571.410156 624.441406 574.445312 C 626.804688 579.847656 623.992188 584.574219 618.253906 584.910156 C 616.679688 585.023438 614.316406 585.921875 613.75 587.046875 C 612.515625 590.085938 611.5 593.574219 611.5 596.835938 C 611.5 605.050781 608.460938 611.011719 600.585938 611.910156 C 591.242188 612.925781 581.675781 612.25 572.222656 611.6875 C 568.398438 611.460938 567.046875 608.761719 569.972656 605.386719 C 572.222656 602.910156 574.585938 600.4375 576.949219 598.074219 C 585.730469 589.183594 593.832031 580.074219 594.058594 566.570312 C 594.058594 565.445312 594.507812 564.320312 594.621094 563.195312 C 596.308594 549.359375 598.445312 535.40625 597.207031 521.34375 C 596.195312 509.417969 592.257812 501.203125 593.496094 488.941406 C 594.394531 480.503906 594.957031 472.066406 595.519531 463.628906 C 595.746094 460.140625 596.757812 456.765625 596.984375 453.164062 C 597.09375 451.027344 594.957031 442.925781 595.746094 441.6875 C 594.507812 443.824219 593.269531 445.964844 592.03125 448.101562 C 588.429688 454.289062 584.605469 460.703125 578.863281 464.976562 C 576.386719 466.890625 573.238281 468.238281 572.335938 471.503906 C 571.886719 473.191406 572 475.101562 572 476.902344 C 572 483.089844 570.761719 489.277344 568.285156 494.902344 C 566.824219 495.804688 564.796875 494.902344 563.894531 493.441406 C 562.996094 491.980469 562.996094 490.179688 563.109375 488.378906 C 563.222656 482.753906 563.332031 477.242188 563.445312 471.613281 C 561.082031 472.289062 559.621094 474.652344 559.167969 477.015625 C 558.71875 479.378906 559.167969 481.851562 559.394531 484.214844 C 559.730469 487.816406 559.730469 491.527344 559.167969 495.128906 C 556.132812 495.355469 552.304688 495.015625 551.066406 492.316406 C 550.617188 491.417969 550.617188 490.292969 550.617188 489.277344 L 550.617188 479.152344 C 550.617188 476.902344 550.617188 474.539062 549.265625 472.628906 C 548.027344 470.714844 544.988281 469.925781 543.414062 471.613281 C 542.511719 472.628906 542.402344 474.203125 542.402344 475.554688 C 542.402344 480.839844 542.289062 486.015625 542.289062 491.304688 C 539.699219 491.867188 536.324219 492.089844 535.3125 489.730469 C 534.972656 489.054688 534.972656 488.265625 534.972656 487.480469 L 534.972656 470.828125 C 533.847656 470.601562 532.722656 470.828125 531.710938 471.390625 C 531.597656 476.902344 531.484375 482.304688 531.371094 487.816406 C 529.683594 489.730469 526.195312 488.265625 525.292969 485.902344 C 524.28125 483.539062 524.84375 480.839844 524.957031 478.253906 C 525.070312 464.640625 509.875 463.402344 503.125 453.277344 C 499.410156 447.652344 497.496094 442.925781 489.394531 446.75 C 457.546875 461.828125 421.644531 451.8125 388.894531 446.527344 C 375.164062 444.386719 361.324219 442.699219 349.167969 434.039062 C 340.726562 427.960938 329.023438 433.25 325.871094 443.261719 C 320.582031 460.027344 315.96875 477.015625 311.015625 493.890625 C 307.191406 506.71875 303.027344 519.542969 299.085938 532.371094 C 297.0625 539.007812 294.25 545.53125 293.460938 552.28125 C 292.222656 562.632812 291.433594 573.320312 292.335938 583.671875 C 293.347656 595.035156 292.335938 606.960938 299.085938 617.425781 C 301.675781 621.476562 299.652344 625.527344 295.710938 628 C 294.359375 628.789062 291.996094 628.675781 290.535156 628 C 289.746094 627.550781 289.632812 625.1875 289.632812 623.613281 C 289.632812 622.261719 290.085938 620.800781 290.308594 619.449219 C 288.058594 620.125 286.820312 621.25 285.921875 622.601562 C 282.207031 628 285.359375 632.726562 287.496094 637.453125 C 291.996094 647.238281 285.921875 660.402344 275.117188 661.414062 C 263.074219 662.539062 250.808594 661.867188 238.765625 661.414062 C 233.925781 661.191406 232.6875 658.265625 235.050781 653.988281 C 236.964844 650.503906 239.328125 647.238281 242.253906 642.738281 C 237.414062 642.738281 233.703125 642.851562 229.988281 642.738281 C 226.050781 642.625 221.996094 642.625 218.285156 641.726562 C 212.996094 640.488281 211.980469 637.339844 215.246094 633.0625 C 217.722656 629.800781 220.648438 626.875 223.6875 624.175781 C 228.863281 619.5625 235.164062 616.1875 237.414062 608.988281 C 239.105469 603.699219 240.90625 598.523438 242.140625 593.125 C 244.957031 581.085938 247.65625 569.046875 249.90625 556.894531 C 251.597656 547.21875 251.257812 537.996094 247.207031 528.429688 C 244.054688 521.117188 243.269531 512.566406 242.59375 504.46875 C 241.578125 492.316406 241.804688 480.164062 241.128906 468.015625 C 241.015625 466.101562 239.214844 463.402344 237.527344 462.726562 C 229.988281 459.578125 223.6875 454.964844 219.859375 447.761719 C 215.132812 438.875 210.855469 429.648438 206.46875 420.648438 C 198.8125 404.898438 196.113281 393.199219 176.980469 390.835938 C 174.054688 390.496094 171.128906 390.382812 168.316406 389.484375 C 162.351562 387.460938 158.523438 381.722656 155.9375 376.097656 C 149.632812 362.59375 147.496094 347.632812 145.46875 332.894531 C 144.230469 324.003906 144.792969 311.292969 141.191406 303.078125 C 137.367188 294.414062 128.363281 287.664062 123.972656 279.003906 C 123.074219 277.539062 120.148438 275.964844 118.574219 276.300781 C 108.105469 278.550781 97.640625 276.976562 87.285156 275.851562 C 76.820312 274.613281 66.464844 273.039062 57.238281 267.1875 C 55.324219 265.953125 51.835938 265.613281 49.808594 266.515625 C 40.582031 270.5625 31.691406 270.226562 22.6875 266.402344 C 19.085938 264.828125 15.371094 263.476562 11.546875 262.574219 C 3.332031 260.777344 0.855469 257.0625 1.867188 248.625 C 2.316406 245.023438 2.316406 241.085938 1.644531 237.597656 C 0.40625 231.523438 1.304688 228.597656 6.707031 225.5625 C 9.296875 224.097656 12.109375 222.859375 14.472656 221.0625 C 27.640625 211.046875 36.417969 197.097656 46.660156 184.496094 C 48.121094 182.695312 49.023438 179.769531 49.136719 177.40625 C 49.359375 172.34375 48.910156 167.28125 48.910156 162.21875 C 48.910156 155.917969 50.824219 150.070312 56.226562 146.46875 C 69.503906 137.582031 68.941406 137.242188 69.730469 121.042969 C 69.84375 119.242188 69.953125 117.214844 70.96875 115.753906 C 72.65625 113.277344 75.917969 112.714844 78.957031 112.714844 C 91.5625 112.714844 100.117188 124.53125 107.542969 110.914062 C 109.230469 107.765625 115.535156 105.289062 119.472656 105.742188 C 129.9375 106.867188 138.378906 112.039062 143.667969 121.828125 C 145.132812 124.640625 147.832031 127.117188 150.535156 128.917969 C 154.472656 131.730469 158.976562 133.753906 163.140625 136.230469 C 167.078125 138.480469 170.679688 138.816406 174.730469 136.117188 C 181.371094 131.617188 188.121094 127.117188 195.210938 123.292969 C 205.003906 118.003906 215.246094 116.089844 225.9375 120.816406 C 230.664062 122.839844 231.902344 126.554688 230.777344 131.390625 C 228.1875 143.09375 222.335938 152.992188 214.230469 161.542969 C 209.503906 166.496094 203.765625 169.308594 196.5625 168.183594 C 194.3125 167.84375 192.0625 167.507812 189.921875 167.167969 C 187.785156 166.832031 185.648438 166.382812 183.507812 165.933594 C 202.753906 179.65625 223.234375 177.859375 243.269531 170.320312 C 252.046875 167.058594 260.9375 165.59375 269.601562 166.382812 C 290.648438 168.292969 311.46875 171.671875 332.398438 174.484375 C 347.929688 176.507812 363.574219 178.53125 379.105469 180.671875 C 395.421875 182.808594 411.628906 185.847656 428.058594 186.972656 C 444.378906 188.097656 460.019531 187.984375 475.890625 191.359375 C 485.566406 193.382812 494.234375 192.597656 503.6875 192.257812 C 513.703125 191.921875 524.28125 194.734375 533.960938 196.648438 C 553.992188 200.808594 574.363281 206.097656 594.957031 203.398438 C 607.898438 201.710938 623.203125 195.183594 635.808594 200.808594 C 647.175781 205.871094 659.554688 212.058594 670.246094 218.585938 C 677.5625 223.085938 683.414062 228.824219 684.988281 238.050781 C 685.890625 243.449219 688.027344 248.851562 690.054688 254.027344 C 693.207031 262.011719 697.144531 269.777344 699.957031 277.878906 C 707.835938 300.492188 708.847656 324.117188 709.1875 347.746094 C 709.296875 357.082031 708.734375 366.421875 709.410156 375.757812 C 710.988281 400.398438 715.152344 414.800781 732.933594 431.5625 C 739.796875 437.976562 746.886719 444.277344 752.515625 451.8125 C 756.789062 457.101562 759.828125 463.066406 761.96875 469.363281 Z M 761.96875 469.363281 " fill-opacity="1" fill-rule="nonzero"/></g></svg>