<svg xmlns="http://www.w3.org/2000/svg" xmlns:xlink="http://www.w3.org/1999/xlink" width="1024" zoomAndPan="magnify" viewBox="0 0 768 767.999994" height="1024" preserveAspectRatio="xMidYMid meet" version="1.0"><defs><clipPath id="d8d33a393a"><path d="M 21.894531 312 L 107.4375 312 L 107.4375 405 L 21.894531 405 Z M 21.894531 312 " clip-rule="nonzero"/></clipPath><clipPath id="42a9e1f0ba"><path d="M 107.296875 365.324219 L 106.136719 363.265625 C 85.679688 331.9375 37.441406 318.066406 21.894531 312.027344 L 21.894531 404.875 C 50.753906 382.09375 74.347656 368.785156 107.296875 365.324219 " clip-rule="nonzero"/></clipPath><clipPath id="335759831e"><path d="M 27.1875 295.175781 L 217.914062 295.175781 L 217.914062 468.234375 L 27.1875 468.234375 Z M 27.1875 295.175781 " clip-rule="nonzero"/></clipPath><clipPath id="13748e078f"><path d="M 27.1875 409.78125 L 159.109375 468.234375 L 217.914062 409.429688 L 217.914062 295.917969 C 216.289062 303.902344 206.46875 308.457031 199.195312 320.601562 C 189.625 336.644531 188.601562 352.25 188.53125 365.773438 L 188.53125 364.1875 C 188.53125 389.800781 168.257812 408.757812 142.617188 409.328125 C 122.554688 409.78125 90.808594 400.25 78.507812 399.046875 C 50.011719 396.257812 27.1875 409.75 27.1875 409.75 " clip-rule="nonzero"/></clipPath><clipPath id="17623af847"><path d="M 25.421875 272.222656 L 217.863281 272.222656 L 217.863281 340 L 25.421875 340 Z M 25.421875 272.222656 " clip-rule="nonzero"/></clipPath><clipPath id="a36206aca1"><path d="M 156.28125 332.050781 C 148.265625 342.039062 136.289062 340.734375 121.210938 333.953125 C 117.46875 332.257812 111.53125 330.171875 107.859375 328.910156 L 83.144531 321.527344 C 55.628906 314.382812 30.300781 310.851562 25.925781 310.292969 L 25.464844 310.222656 L 129.6875 272.222656 L 129.6875 291.824219 L 217.140625 291.824219 C 215.6875 293.941406 213.328125 296.699219 209.789062 299.097656 C 209.789062 299.097656 179.734375 307.503906 171.117188 311.734375 C 159.882812 317.28125 161.648438 325.296875 156.25 332.078125 " clip-rule="nonzero"/></clipPath><clipPath id="b2d6637057"><path d="M 292.65625 293 L 423.304688 293 L 423.304688 376 L 292.65625 376 Z M 292.65625 293 " clip-rule="nonzero"/></clipPath><clipPath id="b301432b40"><path d="M 423.234375 293.898438 L 396.488281 375.554688 L 376.214844 375.554688 L 358.242188 320.253906 L 339.703125 375.554688 L 319.5 375.554688 L 292.65625 293.898438 L 312.257812 293.898438 L 330.695312 351.289062 L 349.945312 293.898438 L 367.460938 293.898438 L 386.148438 351.789062 L 405.148438 293.898438 L 423.234375 293.898438 " clip-rule="nonzero"/></clipPath><clipPath id="6d0599b622"><path d="M 427 292.484375 L 518 292.484375 L 518 377 L 427 377 Z M 427 292.484375 " clip-rule="nonzero"/></clipPath><clipPath id="14127dedac"><path d="M 485.425781 357.546875 C 489.308594 355.320312 492.378906 352.242188 494.574219 348.257812 C 496.761719 344.265625 497.894531 339.78125 497.894531 334.726562 C 497.894531 329.679688 496.792969 325.15625 494.574219 321.207031 C 492.347656 317.242188 489.308594 314.132812 485.425781 311.917969 C 481.535156 309.6875 477.160156 308.597656 472.355469 308.597656 C 467.550781 308.597656 463.175781 309.6875 459.285156 311.917969 C 455.402344 314.132812 452.332031 317.210938 450.136719 321.207031 C 447.949219 325.1875 446.828125 329.679688 446.828125 334.726562 C 446.828125 339.78125 447.917969 344.296875 450.136719 348.257812 C 452.363281 352.210938 455.402344 355.320312 459.285156 357.546875 C 463.175781 359.765625 467.519531 360.867188 472.355469 360.867188 C 477.191406 360.867188 481.535156 359.765625 485.425781 357.546875 M 449.433594 371.492188 C 442.625 367.859375 437.285156 362.804688 433.433594 356.375 C 429.582031 349.953125 427.648438 342.742188 427.648438 334.726562 C 427.648438 326.710938 429.582031 319.511719 433.433594 313.078125 C 437.285156 306.648438 442.625 301.632812 449.433594 297.960938 C 456.257812 294.292969 463.878906 292.484375 472.355469 292.484375 C 480.832031 292.484375 488.464844 294.320312 495.207031 297.960938 C 501.957031 301.605469 507.324219 306.648438 511.207031 313.078125 C 515.089844 319.511719 517.035156 326.710938 517.035156 334.726562 C 517.035156 342.742188 515.089844 349.953125 511.207031 356.375 C 507.324219 362.804688 501.988281 367.820312 495.207031 371.492188 C 488.425781 375.164062 480.832031 376.96875 472.355469 376.96875 C 463.878906 376.96875 456.214844 375.132812 449.433594 371.492188 " clip-rule="nonzero"/></clipPath><clipPath id="a1dd0043be"><path d="M 531.269531 293.898438 L 550.160156 293.898438 L 550.160156 360.15625 L 531.269531 360.15625 Z M 531.269531 360.15625 L 591.136719 360.15625 L 591.136719 375.554688 L 531.269531 375.554688 Z M 531.269531 360.15625 " clip-rule="nonzero"/></clipPath><clipPath id="5eeaea634f"><path d="M 606 293 L 681.15625 293 L 681.15625 376 L 606 376 Z M 606 293 " clip-rule="nonzero"/></clipPath><clipPath id="84d012cc83"><path d="M 681.15625 293.898438 L 681.15625 375.554688 L 665.617188 375.554688 L 624.902344 325.96875 L 624.902344 375.554688 L 606.253906 375.554688 L 606.253906 293.898438 L 621.890625 293.898438 L 662.507812 343.484375 L 662.507812 293.898438 L 681.15625 293.898438 " clip-rule="nonzero"/></clipPath><clipPath id="fc53fdc3ba"><path d="M 700.515625 293.898438 L 719.40625 293.898438 L 719.40625 375.554688 L 700.515625 375.554688 Z M 700.515625 293.898438 " clip-rule="nonzero"/></clipPath><clipPath id="287bc55704"><path d="M 292.65625 405.507812 L 359.101562 405.507812 L 359.101562 469.527344 L 292.65625 469.527344 Z M 292.65625 405.507812 " clip-rule="nonzero"/></clipPath><clipPath id="26ecdb68d4"><path d="M 336.914062 456.296875 C 340.195312 454.460938 342.773438 451.882812 344.648438 448.5625 C 346.515625 445.242188 347.46875 441.53125 347.46875 437.4375 C 347.46875 433.335938 346.515625 429.632812 344.648438 426.3125 C 342.773438 422.992188 340.195312 420.414062 336.914062 418.578125 C 333.625 416.734375 329.921875 415.78125 325.820312 415.78125 C 321.726562 415.78125 318.015625 416.703125 314.734375 418.578125 C 311.445312 420.445312 308.867188 423.023438 307 426.3125 C 305.125 429.59375 304.171875 433.335938 304.171875 437.4375 C 304.171875 441.53125 305.125 445.242188 307 448.5625 C 308.867188 451.882812 311.445312 454.460938 314.734375 456.296875 C 318.015625 458.132812 321.726562 459.085938 325.820312 459.085938 C 329.921875 459.085938 333.625 458.160156 336.914062 456.296875 M 308.867188 465.011719 C 303.820312 462.265625 299.859375 458.484375 296.96875 453.648438 C 294.070312 448.800781 292.65625 443.40625 292.65625 437.4375 C 292.65625 431.46875 294.101562 426.023438 296.96875 421.1875 C 299.828125 416.351562 303.820312 412.570312 308.867188 409.851562 C 313.921875 407.132812 319.570312 405.75 325.859375 405.75 C 332.140625 405.75 337.796875 407.132812 342.84375 409.851562 C 347.898438 412.570312 351.851562 416.351562 354.710938 421.15625 C 357.570312 425.953125 359.023438 431.398438 359.023438 437.4375 C 359.023438 443.476562 357.570312 448.914062 354.710938 453.71875 C 351.851562 458.523438 347.898438 462.292969 342.84375 465.011719 C 337.796875 467.742188 332.140625 469.117188 325.859375 469.117188 C 319.570312 469.117188 313.921875 467.742188 308.867188 465.011719 " clip-rule="nonzero"/></clipPath><clipPath id="7ab9379798"><path d="M 371 406 L 432 406 L 432 469 L 371 469 Z M 371 406 " clip-rule="nonzero"/></clipPath><clipPath id="3b4c323aaf"><path d="M 397.554688 458.554688 C 402.078125 458.554688 406.03125 457.710938 409.488281 455.976562 C 412.949219 454.25 415.570312 451.773438 417.40625 448.59375 C 419.242188 445.410156 420.152344 441.671875 420.152344 437.46875 C 420.152344 433.265625 419.242188 429.523438 417.40625 426.34375 C 415.570312 423.164062 412.921875 420.695312 409.488281 418.960938 C 406.058594 417.234375 402.078125 416.382812 397.554688 416.382812 L 382.578125 416.382812 L 382.578125 458.554688 L 397.554688 458.554688 M 371.171875 406.640625 L 398.085938 406.640625 C 404.65625 406.640625 410.484375 407.90625 415.597656 410.453125 C 420.726562 412.992188 424.675781 416.59375 427.464844 421.257812 C 430.253906 425.921875 431.667969 431.289062 431.667969 437.398438 C 431.667969 443.507812 430.253906 448.871094 427.464844 453.539062 C 424.675781 458.203125 420.683594 461.804688 415.597656 464.382812 C 410.511719 466.960938 404.65625 468.191406 398.085938 468.191406 L 371.171875 468.191406 L 371.171875 406.640625 " clip-rule="nonzero"/></clipPath><clipPath id="d99c4dafa9"><path d="M 468 406 L 513.183594 406 L 513.183594 469 L 468 469 Z M 468 406 " clip-rule="nonzero"/></clipPath><clipPath id="100871925b"><path d="M 479.558594 416.210938 L 479.558594 434.960938 L 509.300781 434.960938 L 509.300781 444.640625 L 479.558594 444.640625 L 479.558594 468.234375 L 468.121094 468.234375 L 468.121094 406.640625 L 513.082031 406.640625 L 513.082031 416.242188 L 479.558594 416.210938 " clip-rule="nonzero"/></clipPath><clipPath id="f95f8fc836"><path d="M 525 406 L 572 406 L 572 469 L 525 469 Z M 525 406 " clip-rule="nonzero"/></clipPath><clipPath id="50085913bf"><path d="M 571.886719 458.625 L 571.886719 468.234375 L 525.691406 468.234375 L 525.691406 406.640625 L 570.652344 406.640625 L 570.652344 416.242188 L 537.128906 416.242188 L 537.128906 432.242188 L 566.871094 432.242188 L 566.871094 441.671875 L 537.128906 441.671875 L 537.128906 458.664062 L 571.886719 458.625 " clip-rule="nonzero"/></clipPath><clipPath id="0d0ab1a47a"><path d="M 586 406 L 638.773438 406 L 638.773438 469 L 586 469 Z M 586 406 " clip-rule="nonzero"/></clipPath><clipPath id="1cf993c707"><path d="M 622.324219 419.460938 C 619.746094 417.335938 615.964844 416.28125 610.976562 416.28125 L 597.597656 416.28125 L 597.597656 440.828125 L 610.976562 440.828125 C 615.964844 440.828125 619.746094 439.765625 622.324219 437.609375 C 624.902344 435.460938 626.207031 432.421875 626.207031 428.5 C 626.207031 424.578125 624.902344 421.539062 622.324219 419.421875 M 626.445312 468.164062 L 613.875 450.117188 C 613.34375 450.1875 612.574219 450.1875 611.507812 450.1875 L 597.597656 450.1875 L 597.597656 468.121094 L 586.152344 468.121094 L 586.152344 406.640625 L 611.507812 406.640625 C 616.847656 406.640625 621.511719 407.523438 625.464844 409.289062 C 629.414062 411.054688 632.453125 413.5625 634.570312 416.84375 C 636.699219 420.125 637.75 424.015625 637.75 428.53125 C 637.75 433.164062 636.617188 437.15625 634.359375 440.507812 C 632.105469 443.855469 628.851562 446.335938 624.652344 447.988281 L 638.773438 468.234375 L 626.445312 468.164062 " clip-rule="nonzero"/></clipPath><clipPath id="073f17fb7a"><path d="M 652 406 L 720 406 L 720 469 L 652 469 Z M 652 406 " clip-rule="nonzero"/></clipPath><clipPath id="451a58243a"><path d="M 708.601562 468.234375 L 708.53125 427.40625 L 688.289062 461.203125 L 683.171875 461.203125 L 662.929688 427.9375 L 662.929688 468.234375 L 652.027344 468.234375 L 652.027344 406.640625 L 661.453125 406.640625 L 685.929688 447.46875 L 709.945312 406.640625 L 719.375 406.640625 L 719.445312 468.234375 L 708.601562 468.234375 " clip-rule="nonzero"/></clipPath></defs><rect x="-76.8" width="921.6" fill="#ffffff" y="-76.799999" height="921.599993" fill-opacity="1"/><rect x="-76.8" width="921.6" fill="#ffffff" y="-76.799999" height="921.599993" fill-opacity="1"/><rect x="-76.8" width="921.6" fill="#ffffff" y="-76.799999" height="921.599993" fill-opacity="1"/><g clip-path="url(#d8d33a393a)"><g clip-path="url(#42a9e1f0ba)"><path fill="#000000" d="M 4.238281 254.558594 L 235.578125 254.558594 L 235.578125 485.898438 L 4.238281 485.898438 Z M 4.238281 254.558594 " fill-opacity="1" fill-rule="nonzero"/></g></g><g clip-path="url(#335759831e)"><g clip-path="url(#13748e078f)"><path fill="#000000" d="M 4.238281 254.558594 L 235.578125 254.558594 L 235.578125 485.898438 L 4.238281 485.898438 Z M 4.238281 254.558594 " fill-opacity="1" fill-rule="nonzero"/></g></g><g clip-path="url(#17623af847)"><g clip-path="url(#a36206aca1)"><path fill="#000000" d="M 4.238281 254.558594 L 235.578125 254.558594 L 235.578125 485.898438 L 4.238281 485.898438 Z M 4.238281 254.558594 " fill-opacity="1" fill-rule="nonzero"/></g></g><g clip-path="url(#b2d6637057)"><g clip-path="url(#b301432b40)"><path fill="#000000" d="M 275 274.832031 L 737.671875 274.832031 L 737.671875 486.742188 L 275 486.742188 Z M 275 274.832031 " fill-opacity="1" fill-rule="nonzero"/></g></g><g clip-path="url(#6d0599b622)"><g clip-path="url(#14127dedac)"><path fill="#000000" d="M 275 274.832031 L 737.671875 274.832031 L 737.671875 486.742188 L 275 486.742188 Z M 275 274.832031 " fill-opacity="1" fill-rule="nonzero"/></g></g><g clip-path="url(#a1dd0043be)"><path fill="#000000" d="M 275 274.832031 L 737.671875 274.832031 L 737.671875 486.742188 L 275 486.742188 Z M 275 274.832031 " fill-opacity="1" fill-rule="nonzero"/></g><g clip-path="url(#5eeaea634f)"><g clip-path="url(#84d012cc83)"><path fill="#000000" d="M 275 274.832031 L 737.671875 274.832031 L 737.671875 486.742188 L 275 486.742188 Z M 275 274.832031 " fill-opacity="1" fill-rule="nonzero"/></g></g><g clip-path="url(#fc53fdc3ba)"><path fill="#000000" d="M 275 274.832031 L 737.671875 274.832031 L 737.671875 486.742188 L 275 486.742188 Z M 275 274.832031 " fill-opacity="1" fill-rule="nonzero"/></g><g clip-path="url(#287bc55704)"><g clip-path="url(#26ecdb68d4)"><path fill="#000000" d="M 275 274.832031 L 737.671875 274.832031 L 737.671875 486.742188 L 275 486.742188 Z M 275 274.832031 " fill-opacity="1" fill-rule="nonzero"/></g></g><g clip-path="url(#7ab9379798)"><g clip-path="url(#3b4c323aaf)"><path fill="#000000" d="M 275 274.832031 L 737.671875 274.832031 L 737.671875 486.742188 L 275 486.742188 Z M 275 274.832031 " fill-opacity="1" fill-rule="nonzero"/></g></g><g clip-path="url(#d99c4dafa9)"><g clip-path="url(#100871925b)"><path fill="#000000" d="M 275 274.832031 L 737.671875 274.832031 L 737.671875 486.742188 L 275 486.742188 Z M 275 274.832031 " fill-opacity="1" fill-rule="nonzero"/></g></g><g clip-path="url(#f95f8fc836)"><g clip-path="url(#50085913bf)"><path fill="#000000" d="M 275 274.832031 L 737.671875 274.832031 L 737.671875 486.742188 L 275 486.742188 Z M 275 274.832031 " fill-opacity="1" fill-rule="nonzero"/></g></g><g clip-path="url(#0d0ab1a47a)"><g clip-path="url(#1cf993c707)"><path fill="#000000" d="M 275 274.832031 L 737.671875 274.832031 L 737.671875 486.742188 L 275 486.742188 Z M 275 274.832031 " fill-opacity="1" fill-rule="nonzero"/></g></g><g clip-path="url(#073f17fb7a)"><g clip-path="url(#451a58243a)"><path fill="#000000" d="M 275 274.832031 L 737.671875 274.832031 L 737.671875 486.742188 L 275 486.742188 Z M 275 274.832031 " fill-opacity="1" fill-rule="nonzero"/></g></g></svg>