<svg xmlns="http://www.w3.org/2000/svg" xmlns:xlink="http://www.w3.org/1999/xlink" width="1024" zoomAndPan="magnify" viewBox="0 0 768 767.999994" height="1024" preserveAspectRatio="xMidYMid meet" version="1.0"><defs><clipPath id="a38e6c56af"><path d="M 108.398438 90.398438 L 659 90.398438 L 659 677.648438 L 108.398438 677.648438 Z M 108.398438 90.398438 " clip-rule="nonzero"/></clipPath></defs><g clip-path="url(#a38e6c56af)"><path fill="#000000" d="M 655.933594 197.628906 C 655.933594 197.628906 655.925781 197.621094 655.925781 197.621094 L 655.933594 197.628906 C 656.496094 197.644531 657.058594 197.65625 657.621094 197.671875 C 658.59375 196.679688 658.246094 195.441406 658.109375 194.328125 C 657.417969 188.570312 654.648438 183.851562 650.671875 179.753906 C 649.746094 178.800781 648.40625 178.054688 648.800781 176.363281 C 648.382812 176.539062 647.964844 176.714844 647.546875 176.886719 C 647.964844 176.714844 648.382812 176.539062 648.800781 176.363281 C 649.648438 175.566406 650.496094 174.769531 651.34375 173.972656 C 657.375 167.210938 659.617188 159.679688 656.191406 150.898438 C 654.699219 147.078125 653.398438 143.1875 654.714844 138.976562 C 655.007812 138.035156 654.578125 136.964844 653.628906 136.835938 C 650.214844 136.375 650.414062 134.0625 650.640625 131.597656 C 650.722656 130.734375 650.828125 129.8125 650.222656 129.039062 C 650.164062 128.796875 650.109375 128.550781 650.054688 128.3125 C 650.089844 128.246094 650.171875 128.175781 650.164062 128.125 C 650.132812 127.988281 650.0625 127.863281 650.007812 127.730469 C 650.007812 127.335938 650.023438 126.941406 650.011719 126.550781 C 649.894531 123.101562 649.054688 122.578125 646.167969 124.316406 C 643.988281 125.625 641.628906 126.730469 640.246094 129.074219 C 639.601562 130.160156 638.574219 130.363281 637.414062 129.9375 C 637.050781 129.242188 636.648438 128.613281 636.140625 128.164062 C 636.644531 128.613281 637.050781 129.242188 637.414062 129.9375 C 637.171875 128.832031 637.40625 127.785156 637.921875 126.8125 C 638.695312 125.347656 639.703125 123.980469 639.675781 122.210938 C 640.71875 120.480469 640.097656 118.722656 639.757812 116.96875 C 639.890625 116.289062 639.996094 115.617188 639.285156 115.15625 C 639.234375 113.292969 639.21875 111.425781 639.125 109.566406 C 639.074219 108.648438 638.703125 107.816406 637.789062 107.4375 C 636.796875 107.023438 636.03125 107.617188 635.460938 108.277344 C 634.441406 109.453125 633.238281 110.519531 632.753906 112.082031 C 631.3125 112.230469 630.691406 113.207031 630.347656 114.460938 C 629.058594 115.417969 627.792969 116.390625 627.308594 118.03125 C 624.613281 118.984375 623.984375 117.585938 624.160156 115.265625 C 624.636719 109 623.652344 103.007812 620.820312 97.359375 C 620.828125 95.992188 620.191406 95.019531 618.84375 94.816406 C 617.285156 94.578125 616.910156 95.925781 616.460938 97 C 614.710938 101.175781 612.960938 105.351562 611.300781 109.566406 C 610.828125 110.761719 610.628906 112.445312 609.183594 112.414062 C 607.589844 112.375 607.367188 110.5625 606.886719 109.296875 C 606.714844 108.84375 606.683594 108.332031 606.636719 107.84375 C 606.136719 102.582031 604.261719 97.679688 602.742188 92.683594 C 602.382812 91.492188 601.933594 90.390625 600.425781 90.402344 C 598.980469 90.410156 598.367188 91.363281 598.054688 92.621094 C 596.9375 97.089844 595.792969 101.546875 594.710938 106.019531 C 594.453125 107.082031 594.429688 108.390625 593.210938 108.65625 C 592 108.921875 591.988281 107.296875 591.160156 106.8125 C 591.125 106.613281 591.09375 106.414062 591.0625 106.21875 C 591.199219 105.714844 591.164062 105.261719 590.671875 104.949219 C 590.667969 104.433594 590.550781 103.964844 590.109375 103.636719 C 589.964844 103.328125 589.824219 103.015625 589.683594 102.703125 C 589.078125 99.882812 587.746094 97.335938 586.628906 94.710938 C 586.089844 93.449219 585.9375 91.511719 583.832031 91.90625 C 582.019531 92.246094 581.910156 93.90625 581.605469 95.367188 C 580.847656 99.019531 580.609375 102.777344 579.308594 106.3125 C 577.4375 106.777344 575.71875 106.625 574.351562 105.078125 C 573.714844 103.234375 571.761719 102.597656 570.722656 101.058594 C 569.152344 98.734375 567.457031 98.804688 565.914062 101.117188 C 565.054688 102.40625 564.484375 103.894531 563.765625 105.28125 C 563.324219 106.132812 563.019531 107.085938 561.980469 107.492188 C 557.089844 109.394531 556.382812 110.527344 556.738281 115.742188 C 556.664062 116.59375 556.085938 117.417969 556.535156 118.304688 C 556.363281 118.378906 556.191406 118.449219 556.019531 118.519531 C 555.023438 119.273438 554.042969 120.042969 553.621094 121.289062 C 550.8125 123.996094 550.480469 125.1875 553.417969 127.523438 C 557.003906 130.378906 561.242188 132.402344 563.679688 136.589844 C 564.015625 137.167969 565.042969 137.324219 565.714844 137.734375 C 566.523438 138.234375 567.675781 138.242188 568.070312 139.351562 C 569.402344 139.890625 570.683594 140.097656 571.9375 140.101562 C 570.683594 140.097656 569.402344 139.890625 568.070312 139.351562 C 566.347656 141.542969 563.761719 140.890625 561.503906 141.332031 C 560.164062 141.59375 558.726562 141.644531 557.875 142.980469 C 554.597656 142.972656 551.71875 144.414062 548.929688 145.789062 C 537.285156 151.535156 528.386719 160.613281 519.992188 170.226562 C 517.859375 172.667969 515.804688 175.222656 514.0625 177.953125 C 508.390625 186.847656 502.800781 195.792969 497.558594 204.953125 C 495.398438 208.726562 493.480469 212.589844 492.015625 216.679688 C 490.9375 218.664062 489.90625 220.679688 488.773438 222.632812 C 484.472656 230.050781 480.019531 237.359375 475.039062 244.375 C 471.679688 249.109375 467.796875 253.148438 463.476562 256.9375 C 460.382812 259.652344 456.589844 261.476562 453.882812 264.652344 C 452.203125 265.25 450.441406 265.6875 449.210938 267.128906 C 446.085938 267.929688 443.144531 269.179688 440.3125 270.710938 C 437.175781 271.496094 434.082031 272.605469 430.898438 273.003906 C 418.523438 274.570312 406.089844 275.449219 393.605469 275.449219 C 391.917969 275.449219 390.265625 275.535156 388.652344 276.046875 C 387.660156 276.046875 386.664062 276.042969 385.671875 276.042969 C 385.015625 275.847656 384.375 275.558594 383.707031 275.472656 C 375.15625 274.40625 366.554688 273.636719 358.140625 271.714844 C 341.589844 267.929688 324.808594 266.59375 307.882812 266.558594 C 307.089844 266.558594 306.296875 266.558594 305.503906 266.5625 C 305.117188 265.953125 304.71875 265.953125 304.316406 266.546875 C 303.125 266.546875 301.9375 266.546875 300.75 266.546875 C 299.757812 266.128906 298.773438 265.457031 297.777344 266.535156 C 295.722656 266.398438 293.675781 266.507812 291.597656 266.242188 C 285.972656 265.519531 280.816406 263.242188 275.417969 261.792969 C 266.519531 259.398438 258.011719 255.992188 250.636719 250.332031 C 246.4375 247.113281 242.144531 244.046875 237.835938 240.984375 C 234.546875 237.109375 231.042969 233.550781 226.707031 230.714844 C 221.957031 227.609375 217.179688 224.476562 213.644531 219.746094 C 212.324219 217.976562 211.261719 215.5625 208.738281 214.847656 C 208.179688 214.160156 207.558594 213.519531 207.078125 212.777344 C 201.851562 204.699219 194.785156 198.449219 186.90625 193.160156 C 179.332031 188.074219 170.578125 185.449219 162.03125 182.585938 C 157.824219 181.175781 153.207031 180.945312 148.75 182.289062 C 142.496094 182.046875 136.394531 182.417969 130.554688 185.167969 C 124.550781 187.996094 120.398438 191.902344 120.292969 199.015625 C 120.25 202.074219 118.246094 204.144531 116 205.753906 C 114.765625 206.636719 114.378906 207.59375 114.214844 208.878906 L 114.21875 208.878906 C 111.304688 211.378906 110.261719 214.988281 108.785156 218.296875 C 108.429688 219.097656 109.121094 220.375 109.839844 221.246094 C 110.152344 221.621094 110.75 222.164062 110.652344 222.414062 C 109.039062 226.570312 113.308594 227.902344 114.792969 230.421875 C 115.871094 232.25 116.640625 233.632812 115.726562 235.398438 C 113.359375 239.96875 114.429688 244.003906 116.980469 248.113281 C 117.890625 249.585938 119.554688 250.472656 119.851562 252.464844 C 120.242188 255.0625 122.109375 256.609375 124.484375 257.554688 C 124.605469 257.421875 124.738281 257.320312 124.875 257.242188 C 124.738281 257.320312 124.605469 257.421875 124.484375 257.554688 C 124.847656 257.78125 125.214844 258.007812 125.582031 258.234375 C 125.730469 258.277344 125.882812 258.304688 126.039062 258.328125 C 125.882812 258.304688 125.730469 258.277344 125.578125 258.234375 C 127.007812 260.90625 128.972656 263.09375 131.492188 264.777344 C 131.679688 265.714844 131.515625 266.5 130.570312 266.957031 C 130.457031 267.226562 130.347656 267.496094 130.234375 267.765625 C 130.347656 267.496094 130.457031 267.226562 130.570312 266.953125 C 129.746094 266.554688 129.304688 266.964844 129.011719 267.6875 C 128.070312 267.488281 127.132812 267.292969 126.191406 267.097656 C 125.464844 266.417969 125.097656 267.035156 124.691406 267.511719 C 124.21875 267.671875 123.746094 267.835938 123.273438 267.996094 C 121.832031 267.890625 120.789062 269.867188 119.183594 268.828125 C 117.878906 267.980469 116.730469 268.976562 115.507812 269.042969 C 114.414062 269.101562 114.402344 270.007812 114.171875 270.71875 C 113.785156 271.910156 114.535156 272.296875 115.511719 272.484375 C 116.011719 273.050781 116.507812 273.613281 117.007812 274.179688 C 116.746094 274.96875 117.144531 275.316406 117.859375 275.453125 C 119.4375 278.542969 121.402344 281.34375 124.035156 283.640625 C 123.800781 284.652344 123.980469 285.703125 122.886719 286.515625 C 120.417969 288.34375 118.472656 290.613281 119.320312 294.011719 C 120 296.75 120.894531 299.433594 121.707031 302.136719 C 121.722656 302.183594 121.890625 302.179688 121.988281 302.203125 C 123.359375 305.253906 126.140625 306.660156 128.886719 308.113281 C 129.65625 309.625 130.941406 310.355469 132.585938 310.546875 C 132.964844 310.597656 133.347656 310.648438 133.730469 310.699219 C 133.804688 310.5 133.878906 310.296875 133.953125 310.09375 C 134.941406 310.085938 135.589844 309.933594 135.617188 309.441406 C 135.589844 309.933594 134.941406 310.085938 133.953125 310.097656 C 133.878906 310.296875 133.804688 310.5 133.730469 310.699219 C 133.761719 310.835938 133.832031 310.941406 133.941406 311.023438 C 134.09375 312.640625 133.949219 314.484375 136.433594 314.363281 C 137.136719 314.714844 137.835938 315.066406 138.539062 315.417969 C 138.613281 315.722656 138.6875 316.03125 138.761719 316.339844 C 138.40625 322.546875 139.445312 324.226562 144.691406 325.960938 C 144.574219 327.882812 145.757812 328.359375 147.277344 327.992188 C 148.34375 327.730469 149.339844 327.601562 150.394531 327.851562 C 153.039062 331.164062 157.207031 334.128906 152.933594 339.015625 C 151.902344 339.574219 151.027344 340.472656 151.554688 341.566406 C 151.933594 342.355469 153.371094 342.207031 153.996094 341.804688 C 156.03125 340.496094 156.339844 342.835938 157.519531 343.261719 C 157.542969 343.625 157.570312 343.988281 157.59375 344.351562 C 156.464844 346.441406 157.894531 346.628906 159.390625 346.761719 C 159.617188 347.136719 159.839844 347.511719 160.066406 347.886719 C 160.246094 347.894531 160.429688 347.902344 160.609375 347.910156 C 160.429688 347.902344 160.25 347.894531 160.066406 347.886719 C 160.082031 348.890625 160.09375 349.894531 160.109375 350.898438 C 159.917969 351.695312 159.726562 352.492188 159.53125 353.289062 C 159.5 353.675781 159.464844 354.0625 159.429688 354.453125 C 158.472656 355.058594 157.691406 355.707031 158.875 356.816406 C 161.179688 363.964844 169.21875 370.03125 176.015625 369.75 C 177.503906 370.636719 177.394531 371.640625 176.40625 372.90625 C 172.109375 378.417969 171.402344 385.476562 168.570312 391.648438 C 167.269531 394.472656 167.699219 398.234375 167.878906 401.542969 C 167.984375 403.472656 168.042969 406.1875 171.285156 406.132812 C 171.652344 406.160156 172.023438 406.1875 172.394531 406.214844 C 176.613281 407.816406 179.972656 410.648438 183.164062 413.726562 C 183.28125 413.839844 183.535156 413.804688 183.726562 413.839844 C 183.761719 414.421875 183.792969 415 183.828125 415.578125 C 184.390625 415.671875 185.113281 415.621094 185.609375 415.777344 C 185.113281 415.621094 184.390625 415.671875 183.828125 415.578125 C 183.019531 417.351562 182.425781 419.191406 180.9375 420.652344 C 179.953125 421.617188 179.464844 423.0625 181.308594 423.972656 C 181.933594 427.363281 184.449219 429.429688 186.710938 431.671875 C 187.847656 435.289062 190.746094 437.199219 193.902344 438.640625 C 195.914062 439.558594 195.960938 440.347656 194.644531 441.890625 C 191.5625 445.503906 189.871094 449.457031 191.957031 454.242188 C 192.171875 454.738281 192.214844 455.539062 191.960938 455.976562 C 190.039062 459.242188 192.03125 460.867188 194.417969 462.570312 C 196.074219 463.75 197.132812 466.140625 196.59375 467.621094 C 195.28125 471.246094 196.15625 474.835938 195.777344 478.402344 C 195.683594 479.289062 196.0625 479.914062 196.882812 479.691406 C 200.617188 478.679688 198.699219 481.082031 198.449219 482.308594 C 198.257812 483.253906 197.75 484.140625 197.382812 485.054688 C 196.53125 485.085938 195.949219 485.519531 195.566406 486.257812 C 194.339844 486.496094 194.320312 487.347656 194.644531 488.253906 C 194.902344 488.972656 195.578125 489.394531 196.273438 489.105469 C 197.28125 488.6875 197.890625 489.554688 198.613281 489.621094 C 201.058594 489.84375 200.128906 492.9375 202.109375 493.40625 C 202.105469 494.007812 202.105469 494.605469 202.105469 495.207031 C 201.375 495.980469 201.226562 496.996094 202.171875 497.441406 C 204.664062 498.609375 206.28125 500.554688 207.722656 502.773438 C 208.136719 503.40625 208.902344 503.71875 209.59375 504.109375 C 211.347656 505.105469 212.816406 506.386719 213.066406 508.667969 C 213.3125 510.910156 216.167969 513.421875 218.519531 513.566406 C 219.570312 513.628906 220.394531 513.691406 220.761719 514.929688 C 221.070312 515.957031 222.050781 515.992188 222.96875 515.941406 C 224.488281 516.925781 225.628906 518.121094 225.308594 520.132812 C 224.640625 520.578125 224.769531 521.269531 224.753906 521.921875 C 224.019531 522.382812 222.847656 522.945312 223.339844 523.8125 C 223.96875 524.917969 225.101562 524.101562 225.925781 523.648438 C 229.816406 521.503906 234.386719 521.554688 236.65625 524.910156 C 240.347656 530.371094 246.171875 532.898438 250.996094 536.777344 C 252.441406 537.941406 253.597656 539.445312 255.382812 540.230469 C 259.519531 542.054688 263.476562 544.144531 266.726562 547.429688 C 268.027344 548.746094 269.734375 549.636719 271.699219 549.746094 C 272.976562 550.910156 272.859375 552.429688 272.753906 553.941406 C 271.804688 555.25 271.375 556.777344 271.160156 558.332031 C 270.34375 564.171875 269.976562 570.046875 269.835938 575.9375 C 269.101562 576.816406 268.988281 577.921875 268.816406 578.976562 C 267.988281 584.128906 267.222656 589.289062 266.402344 594.445312 C 265.429688 600.566406 264.421875 606.683594 263.425781 612.804688 C 263.625 614.359375 262.003906 615.398438 262.246094 616.96875 C 261.34375 618.3125 261.257812 619.882812 260.96875 621.414062 C 259.628906 628.582031 258.246094 635.738281 250.816406 639.523438 C 250.273438 639.800781 249.980469 640.578125 249.574219 641.121094 C 249.042969 641.390625 248.511719 641.660156 247.976562 641.925781 C 244.019531 643.320312 240.046875 644.683594 236.097656 646.109375 C 233.152344 647.171875 230.1875 648.195312 227.316406 649.445312 C 225.113281 650.402344 225.035156 651.164062 226.609375 652.429688 C 228.570312 653 230.382812 653.683594 232.097656 655 C 236.582031 658.4375 239.132812 658.214844 243.605469 654.679688 C 244.210938 654.199219 244.980469 653.925781 245.675781 653.554688 C 246.332031 653.40625 247.046875 653.371094 247.644531 653.089844 C 248.894531 652.488281 250.230469 651.832031 251.46875 652.648438 C 252.957031 653.628906 252.226562 655.25 252.113281 656.648438 C 251.65625 659.851562 252.246094 663.015625 252.59375 666.179688 C 252.71875 667.273438 253.632812 668.40625 254.675781 668.445312 C 258.363281 668.585938 259.742188 671.613281 261.820312 673.769531 C 262.71875 674.703125 263.660156 675.539062 264.9375 675.898438 C 265.277344 676.453125 265.660156 676.902344 266.402344 676.539062 C 268.933594 677.226562 271.503906 676.683594 274.050781 676.796875 C 274.585938 677.496094 275.179688 677.433594 275.804688 676.921875 C 277.15625 677.125 278.480469 677.636719 279.878906 677.253906 C 282.359375 676.953125 283.386719 675.519531 282.425781 673.480469 C 282.050781 672.683594 281.484375 672.019531 281.816406 671.074219 C 283.582031 671.074219 285.347656 671.074219 287.113281 671.070312 C 287.398438 671.296875 287.691406 671.355469 287.984375 671.085938 C 288.214844 671.167969 288.441406 671.25 288.671875 671.332031 C 293.535156 671.625 298.398438 671.703125 303.25 671.097656 C 305.375 671.230469 307.5 671.367188 309.625 671.5 C 311.910156 672.246094 314.203125 672.339844 316.503906 671.550781 C 322.90625 671.972656 329.414062 671.011719 335.699219 672.988281 C 337.824219 674.167969 339.824219 673.769531 341.753906 672.511719 C 343.160156 672.246094 344.152344 671.265625 344.542969 670.082031 C 345.550781 667.050781 347.265625 668.027344 349.167969 668.945312 C 350.414062 669.546875 350.605469 671.0625 351.785156 671.667969 C 351.976562 672.324219 352.050781 673.050781 352.386719 673.628906 C 353.015625 674.707031 353.6875 676.300781 355.109375 675.878906 C 356.433594 675.484375 356.089844 673.789062 355.898438 672.703125 C 354.785156 666.46875 351.59375 661.925781 344.527344 661.554688 C 342.765625 661.464844 341.003906 661.359375 339.238281 661.257812 C 338.726562 660.96875 338.191406 660.941406 337.640625 661.125 C 334.714844 659.742188 331.601562 660.238281 328.640625 660.601562 C 324.96875 661.058594 321.46875 660.964844 317.855469 660.128906 C 312.253906 658.828125 306.515625 658.53125 300.765625 658.636719 C 299.136719 658.28125 297.664062 657.351562 295.945312 657.355469 C 295.796875 656.691406 295.683594 655.949219 294.808594 656.824219 C 294.214844 656.816406 293.621094 656.804688 293.027344 656.796875 C 292.835938 656.460938 292.664062 655.847656 292.457031 655.835938 C 289.242188 655.671875 286.265625 654.300781 283.113281 653.960938 C 280.320312 653.664062 279.339844 652.027344 279.328125 649.625 C 279.3125 646.980469 279.34375 644.339844 279.695312 641.679688 C 280.042969 639.019531 281.160156 636.304688 280.023438 633.558594 C 280.082031 632.984375 280.140625 632.410156 280.195312 631.835938 C 281.703125 629.238281 281.257812 626.25 281.515625 623.496094 C 282.425781 613.8125 284.363281 604.308594 285.960938 594.742188 C 286.78125 589.828125 288.242188 585.023438 288.574219 580.019531 C 289.183594 578.265625 289.789062 576.511719 290.394531 574.757812 C 290.648438 574.703125 290.679688 574.523438 290.683594 574.511719 C 292.164062 574.609375 293.785156 575.46875 294.917969 573.683594 C 295.855469 573.539062 296.789062 573.390625 297.722656 573.242188 C 298.542969 573.328125 299.359375 573.414062 300.179688 573.503906 C 301.0625 574.472656 302.128906 574.082031 303.167969 573.902344 C 304.363281 574.167969 305.5625 574.273438 306.75 573.859375 C 307.335938 573.863281 307.921875 573.871094 308.507812 573.875 C 308.507812 573.875 308.511719 573.875 308.511719 573.875 C 308.507812 573.875 308.507812 573.878906 308.507812 573.878906 C 308.507812 573.878906 308.742188 574.015625 308.742188 574.015625 C 308.742188 574.015625 309.050781 574.066406 308.917969 574.007812 C 308.96875 574.003906 309.015625 574.003906 309.015625 574.003906 C 309.871094 574.082031 310.78125 574.417969 311.40625 573.464844 C 312.59375 573.058594 313.78125 572.652344 314.96875 572.246094 C 315.742188 572.378906 316.113281 571.953125 316.308594 571.28125 C 318.324219 570.382812 320.011719 569.082031 321.394531 567.414062 C 321.816406 567.871094 321.289062 567.117188 322.257812 566.886719 C 323.363281 566.625 322.625 566.675781 323.414062 566.308594 C 323.949219 566.058594 324.28125 565.804688 324.707031 565.523438 C 326.59375 565.117188 328.480469 564.683594 330.382812 564.359375 C 332.0625 564.074219 333.464844 563.5625 334.550781 562.082031 C 335.574219 560.6875 337.019531 560.808594 338.496094 561.625 C 340.253906 562.597656 341.976562 562.59375 343.703125 561.347656 C 344.632812 560.671875 345.847656 559.625 346.867188 560.039062 C 349.65625 561.167969 350.5 559.578125 351.207031 557.488281 C 353.839844 557.195312 356.347656 559.664062 359.058594 557.816406 C 359.523438 557.5 360.042969 557.722656 360.375 558.113281 C 362.402344 560.476562 365.265625 560.097656 367.90625 560.4375 C 368.472656 560.671875 369.039062 560.914062 369.601562 561.152344 C 370.753906 564.296875 372.980469 563.996094 375.433594 562.96875 C 375.863281 565.074219 377.015625 566.5 379.191406 566.957031 C 379.558594 567.195312 379.929688 567.429688 380.296875 567.667969 C 380.792969 569.203125 382.167969 569.074219 383.367188 569.277344 C 385.648438 570.792969 387.929688 572.304688 390.210938 573.820312 C 390.976562 574.828125 391.90625 575.75 392.480469 576.859375 C 395.523438 582.734375 400.167969 587.40625 404.144531 592.574219 C 404.210938 593.734375 404.941406 594.402344 405.875 594.921875 C 405.875 594.921875 405.898438 594.949219 405.898438 594.949219 C 406.53125 596.058594 407.113281 597.199219 407.808594 598.261719 C 413.605469 607.128906 419.914062 615.660156 424.945312 625.03125 C 426.21875 627.40625 427.023438 630.179688 429.347656 631.921875 C 429.40625 632.09375 429.484375 632.257812 429.582031 632.414062 C 431.285156 635.753906 432.65625 639.152344 432.175781 643.058594 C 432.035156 644.226562 432.640625 645.347656 433.628906 646.136719 C 433.734375 646.480469 433.839844 646.828125 433.941406 647.171875 C 433.734375 649.109375 432.554688 650.453125 430.992188 651.34375 C 426.414062 653.949219 421.730469 656.371094 417.164062 658.996094 C 414.445312 660.5625 411.761719 662.277344 410.378906 665.296875 C 410.019531 666.070312 409.695312 667.105469 410.605469 667.695312 C 411.355469 668.183594 412.128906 667.890625 412.464844 666.941406 C 411.996094 666.371094 411.785156 665.933594 411.753906 665.589844 C 411.785156 665.933594 411.996094 666.367188 412.464844 666.9375 C 413.105469 666.535156 413.957031 666.40625 414.261719 665.566406 C 415.601562 666 416.941406 666.433594 418.28125 666.867188 C 422.050781 668.652344 425.445312 667.867188 428.5 664.503906 C 429.238281 664.339844 429.910156 664.066406 430.308594 663.367188 C 430.308594 663.367188 430.371094 663.320312 430.371094 663.320312 C 431.570312 663.347656 432.273438 662.464844 433.136719 661.847656 C 436.09375 659.730469 439.390625 659.664062 442.796875 660.328125 C 442.796875 660.328125 442.792969 660.332031 442.792969 660.332031 C 441.835938 664.539062 442.589844 665.824219 446.660156 667.109375 C 448.328125 667.636719 449.738281 668.414062 450.9375 669.894531 C 452.585938 671.933594 454.640625 673.710938 457.582031 673.707031 C 457.898438 674.375 458.269531 674.402344 458.691406 673.800781 C 459.460938 673.742188 460.234375 673.683594 461.003906 673.625 C 462.839844 673.855469 464.679688 674.222656 466.453125 673.328125 C 467.835938 673.355469 469.21875 673.378906 470.605469 673.402344 C 473.039062 673.074219 474.070312 671.738281 472.945312 670.007812 C 472.160156 668.800781 472.328125 667.636719 472.21875 666.417969 C 479.445312 667.996094 486.65625 666.828125 493.875 666.324219 C 496.203125 666.433594 498.53125 666.542969 500.859375 666.652344 C 504.621094 667.65625 508.445312 667.082031 512.242188 667.007812 C 516.753906 666.914062 521.179688 667.027344 525.542969 668.515625 C 527.996094 669.347656 530.671875 669.878906 533.105469 668.128906 C 534.050781 667.914062 534.527344 667.140625 535.03125 666.4375 C 537.085938 663.578125 537.914062 663.585938 540.648438 665.863281 C 542.320312 667.253906 543.015625 669.410156 544.796875 670.648438 C 545.226562 671.304688 546.042969 672.734375 546.335938 671.121094 C 546.59375 669.707031 546.871094 667.90625 546.160156 666.34375 C 543.210938 659.851562 536.78125 656.335938 529.371094 657.175781 C 528.996094 657.171875 528.625 657.171875 528.25 657.167969 C 526.714844 656.40625 525.074219 656.285156 523.378906 656.191406 C 518.265625 655.910156 513.109375 656.941406 508.027344 655.628906 C 504.773438 654.785156 501.457031 654.449219 498.085938 654.335938 C 494.949219 654.234375 491.6875 654.195312 488.722656 653.3125 C 483.921875 651.882812 479.089844 651.316406 474.140625 651.21875 C 473.070312 649.617188 471.414062 650.386719 469.992188 650.195312 C 468.753906 647.722656 467.679688 645.15625 466.019531 642.914062 L 465.933594 642.988281 C 465.976562 642.953125 466.019531 642.914062 466.019531 642.914062 C 465.808594 642.5625 465.601562 642.207031 465.390625 641.851562 C 465.296875 641.503906 465.199219 641.15625 465.101562 640.808594 C 463.558594 636.703125 460.621094 633.988281 456.628906 632.324219 C 456.207031 632.070312 455.78125 631.8125 455.355469 631.554688 C 455.089844 629.976562 453.742188 629.25 452.746094 628.246094 C 451.902344 627.125 451.582031 625.515625 449.890625 625.183594 C 446.59375 619.546875 442.96875 614.113281 438.898438 609.023438 C 437.652344 607.460938 437.21875 605.171875 435.085938 604.335938 C 434.882812 604.144531 434.679688 603.949219 434.480469 603.757812 C 434.03125 603.003906 433.582031 602.253906 433.136719 601.503906 C 432.039062 599.332031 431 597.121094 429.0625 595.523438 C 428.878906 595.316406 428.695312 595.105469 428.511719 594.898438 C 427.003906 590.652344 424.3125 587.140625 421.53125 583.6875 C 421.457031 582.882812 421.378906 582.078125 421.300781 581.273438 C 421.265625 581.046875 421.226562 580.824219 421.191406 580.597656 C 421.191406 580.597656 421.191406 580.597656 421.195312 580.597656 C 421.226562 580.824219 421.265625 581.046875 421.300781 581.273438 C 422.058594 581.078125 422.875 581.011719 423.558594 580.675781 C 426.578125 579.1875 429.714844 577.800781 430.902344 574.214844 C 431.089844 574.023438 431.277344 573.832031 431.460938 573.640625 C 431.644531 573.648438 431.824219 573.625 432.003906 573.582031 C 438.535156 570.027344 444.230469 565.707031 446.53125 558.152344 C 447.191406 555.984375 448.195312 553.917969 448.769531 551.734375 C 449.277344 549.792969 450.550781 549.011719 452.277344 548.691406 C 454.34375 548.308594 456.015625 547.207031 456.839844 545.390625 C 458.382812 541.996094 459.78125 538.515625 460.933594 534.96875 C 461.847656 532.152344 463.140625 529.234375 460.917969 526.273438 C 460.140625 525.242188 460.714844 523.800781 460.699219 522.535156 C 460.664062 519.207031 463.09375 516.730469 463.511719 513.601562 C 467.304688 509.160156 472.371094 506.488281 477.269531 503.542969 C 484.175781 499.378906 491.402344 495.75 497.996094 491.050781 C 499.734375 489.8125 502.085938 489.421875 503.796875 488.15625 C 507.070312 485.734375 510.566406 483.949219 514.453125 482.789062 C 519.378906 481.320312 523.777344 478.707031 528.195312 476.160156 C 531.320312 475.039062 532.832031 472.003906 535.371094 470.148438 C 543.371094 464.296875 550.335938 457.414062 555.9375 449.164062 C 561.714844 440.652344 566.378906 431.511719 571.335938 422.53125 C 574.960938 415.960938 578.46875 409.328125 582.097656 402.761719 C 585.828125 396.019531 589.714844 389.378906 592.691406 382.234375 C 594.972656 376.753906 596.527344 371.046875 598.347656 365.429688 C 601.171875 356.699219 605.730469 348.609375 607.757812 339.597656 C 607.960938 339 608.164062 338.402344 608.367188 337.808594 C 611.371094 330.144531 613.589844 322.28125 614.398438 314.058594 C 615.015625 313.597656 614.910156 312.925781 614.921875 312.289062 C 614.277344 309.75 616.695312 307.691406 616.039062 305.148438 C 617.15625 304.105469 616.539062 302.777344 616.636719 301.566406 C 616.550781 297.953125 617.257812 294.433594 617.859375 290.902344 C 617.628906 290.875 617.402344 290.878906 617.183594 290.90625 C 617.402344 290.878906 617.628906 290.875 617.859375 290.902344 C 618.453125 288.554688 618.601562 286.179688 618.402344 283.773438 C 618.351562 282.761719 618.839844 281.652344 617.859375 280.808594 C 617.652344 279.023438 617.445312 277.242188 617.238281 275.460938 C 617.128906 274.261719 617.726562 272.949219 616.691406 271.890625 C 616.734375 270.074219 616.492188 268.359375 614.953125 267.117188 C 614.933594 266.726562 614.914062 266.339844 614.894531 265.949219 C 615.90625 265.140625 614.714844 264.386719 614.832031 263.601562 C 614.890625 263.097656 614.785156 262.664062 614.308594 262.394531 C 614.292969 262 614.277344 261.605469 614.265625 261.210938 C 613.886719 261.207031 613.511719 261.203125 613.132812 261.199219 C 613.507812 261.203125 613.886719 261.207031 614.265625 261.210938 C 614.144531 260.011719 614.777344 258.691406 613.699219 257.640625 C 613.675781 257.25 613.652344 256.863281 613.628906 256.472656 C 613.699219 255.964844 613.589844 255.535156 613.109375 255.265625 C 612.679688 253.667969 612.257812 252.070312 611.832031 250.472656 C 610.71875 247.75 609.601562 245.027344 608.488281 242.304688 L 608.390625 242.210938 C 608.433594 242.253906 608.488281 242.304688 608.488281 242.304688 C 608.65625 242.140625 608.824219 241.976562 608.996094 241.8125 C 608.902344 241.765625 608.804688 241.746094 608.710938 241.746094 C 608.808594 241.746094 608.902344 241.769531 608.996094 241.8125 C 610.570312 241.609375 611.863281 240.792969 613.273438 240.117188 C 616.84375 238.40625 618.582031 235.050781 621.03125 232.332031 C 622.492188 231.46875 623.746094 230.382812 624.707031 228.96875 C 628.773438 223.019531 630.125 215.933594 632.84375 209.417969 C 633.246094 208.457031 633.101562 207.277344 633.304688 206.214844 C 634.203125 201.515625 631.832031 197.605469 630.300781 193.488281 C 630.988281 193.464844 631.398438 193.09375 631.597656 192.457031 C 631.960938 192.390625 632.324219 192.324219 632.6875 192.257812 C 632.902344 192.210938 633.113281 192.164062 633.332031 192.121094 C 633.523438 192.171875 633.71875 192.222656 633.914062 192.277344 C 633.898438 192.035156 633.84375 191.828125 633.753906 191.652344 C 633.84375 191.828125 633.898438 192.035156 633.914062 192.277344 C 634.996094 193.980469 636.929688 193.21875 638.421875 193.71875 C 643.691406 195.488281 648.394531 198.925781 654.171875 199.203125 C 654.765625 199.300781 655.359375 199.402344 655.953125 199.503906 C 656.109375 199.582031 656.277344 199.625 656.453125 199.628906 C 657.519531 200.257812 657.585938 199.589844 657.550781 198.785156 C 657.574219 198.410156 657.601562 198.035156 657.625 197.664062 C 657.058594 197.65625 656.496094 197.644531 655.933594 197.628906 Z M 655.933594 197.628906 " fill-opacity="1" fill-rule="nonzero"/></g></svg>