<svg width="112" height="32" viewBox="0 0 112 32" fill="none" xmlns="http://www.w3.org/2000/svg">
<g clip-path="url(#clip0)">
<path d="M64.4415 3.52161L60.1587 16.7968H56.8897L54.0149 7.80762L51.0248 16.7968H47.784L43.4756 3.52161H46.6243L49.5836 12.8503L52.6734 3.52161H55.4894L58.4871 12.928L61.5411 3.52161H64.4415Z" fill="white"/>
<path d="M68.6475 16.1334C67.5873 15.5684 66.7015 14.7184 66.0876 13.6769C65.4635 12.614 65.1427 11.3968 65.1609 10.1605C65.1427 8.92335 65.4634 7.70529 66.0876 6.64149C66.7022 5.60053 67.5878 4.7507 68.6475 4.18494C69.7864 3.59891 71.046 3.29346 72.3236 3.29346C73.6012 3.29346 74.8608 3.59891 75.9997 4.18494C77.0718 4.75646 77.9667 5.61725 78.5853 6.67194C79.2038 7.72663 79.5219 8.93406 79.5042 10.1605C79.519 11.3843 79.1996 12.5884 78.5812 13.6401C77.9628 14.6918 77.0695 15.5502 75.9997 16.1205C74.8608 16.7065 73.6012 17.012 72.3236 17.012C71.046 17.012 69.7864 16.7065 68.6475 16.1205V16.1334ZM74.4253 13.866C75.0442 13.5118 75.5538 12.9906 75.8973 12.3605C76.2607 11.6864 76.4451 10.9283 76.4323 10.1605C76.4457 9.39256 76.2613 8.63435 75.8973 7.96047C75.5542 7.3294 75.0445 6.80727 74.4253 6.45233C73.7818 6.09693 73.0605 5.91069 72.3274 5.91069C71.5944 5.91069 70.8731 6.09693 70.2296 6.45233C69.6103 6.80727 69.1007 7.3294 68.7576 7.96047C68.3944 8.63455 68.2109 9.39278 68.2251 10.1605C68.2116 10.9281 68.395 11.6862 68.7576 12.3605C69.1019 12.99 69.6113 13.5111 70.2296 13.866C70.8731 14.2214 71.5944 14.4077 72.3274 14.4077C73.0605 14.4077 73.7818 14.2214 74.4253 13.866Z" fill="white"/>
<path d="M81.79 3.52161H84.8236V14.2937H91.3898V16.7968H81.79V3.52161Z" fill="white"/>
<path d="M105.853 3.52161V16.7968H103.363L96.8219 8.7379V16.7968H93.8242V3.52161H96.3355L102.856 11.5806V3.52161H105.853Z" fill="white"/>
<path d="M108.964 3.52161H112V16.7968H108.964V3.52161Z" fill="white"/>
<path d="M46.079 31.3341C45.2865 30.909 44.6256 30.2705 44.1693 29.4891C43.7163 28.6855 43.478 27.7763 43.478 26.8511C43.478 25.9259 43.7163 25.0167 44.1693 24.2132C44.6256 23.4317 45.2865 22.7932 46.079 22.3682C46.9227 21.9304 47.8572 21.7021 48.8053 21.7021C49.7534 21.7021 50.6879 21.9304 51.5316 22.3682C52.3221 22.7915 52.982 23.4272 53.4388 24.2054C53.8934 25.0112 54.1325 25.9232 54.1325 26.8511C54.1325 27.7791 53.8934 28.691 53.4388 29.4968C52.982 30.2751 52.3221 30.9108 51.5316 31.3341C50.6879 31.7718 49.7534 32.0001 48.8053 32.0001C47.8572 32.0001 46.9227 31.7718 46.079 31.3341ZM50.5845 29.9192C51.1064 29.6241 51.5371 29.1881 51.8286 28.6598C52.1277 28.1032 52.2844 27.4796 52.2844 26.8459C52.2844 26.2123 52.1277 25.5887 51.8286 25.032C51.5371 24.5037 51.1064 24.0677 50.5845 23.7726C50.0366 23.4766 49.4251 23.3218 48.804 23.3218C48.183 23.3218 47.5715 23.4766 47.0236 23.7726C46.5019 24.0671 46.0719 24.5033 45.782 25.032C45.4829 25.5887 45.3262 26.2123 45.3262 26.8459C45.3262 27.4796 45.4829 28.1032 45.782 28.6598C46.0719 29.1885 46.5019 29.6247 47.0236 29.9192C47.5715 30.2152 48.183 30.3701 48.804 30.3701C49.4251 30.3701 50.0366 30.2152 50.5845 29.9192Z" fill="white"/>
<path d="M56.0781 21.8447H60.4147C61.3885 21.8257 62.3531 22.0387 63.2306 22.4666C64.0203 22.8552 64.6825 23.4661 65.1377 24.2261C65.5824 25.0277 65.816 25.9317 65.816 26.8511C65.816 27.7705 65.5824 28.6744 65.1377 29.4761C64.6825 30.236 64.0203 30.847 63.2306 31.2356C62.3531 31.6634 61.3885 31.8765 60.4147 31.8575H56.0781V21.8447ZM60.3174 30.2845C60.9796 30.2979 61.6355 30.1532 62.2322 29.8622C62.7676 29.5992 63.2132 29.1806 63.5122 28.6598C63.8064 28.1016 63.9603 27.4786 63.9603 26.8459C63.9603 26.2132 63.8064 25.5902 63.5122 25.032C63.2132 24.5112 62.7676 24.0925 62.2322 23.8296C61.6355 23.5386 60.9796 23.3939 60.3174 23.4072H57.9162V30.2742L60.3174 30.2845Z" fill="white"/>
<path d="M73.4859 23.4047V26.4495H78.2627V28.025H73.4859V31.8575H71.6504V21.8447H78.8694V23.3995L73.4859 23.4047Z" fill="white"/>
<path d="M88.3179 30.2976V31.8523H80.894V21.8447H88.1131V23.3995H82.7372V25.9908H87.514V27.5223H82.7295V30.282L88.3179 30.2976Z" fill="white"/>
<path d="M97.0755 31.8576L95.0532 28.9242C94.9264 28.9365 94.7991 28.9417 94.6718 28.9397H92.4395V31.8576H90.604V21.8448H94.6718C95.4408 21.8299 96.2041 21.98 96.9117 22.2853C97.5095 22.5372 98.0188 22.9651 98.3734 23.5136C98.7243 24.0841 98.9023 24.7463 98.8854 25.4182C98.9028 26.1066 98.7136 26.7843 98.3427 27.3616C97.9596 27.9212 97.4138 28.346 96.7811 28.577L99.0544 31.8679L97.0755 31.8576ZM96.41 23.9333C95.9952 23.5913 95.386 23.4151 94.5873 23.4151H92.4395V27.4057H94.5873C95.3877 27.4057 95.9952 27.2329 96.41 26.8874C96.6172 26.7048 96.7801 26.4764 96.8862 26.2198C96.9923 25.9632 97.0387 25.6854 97.0218 25.4078C97.0395 25.1309 96.9934 24.8536 96.8872 24.5977C96.7811 24.3419 96.6177 24.1144 96.41 23.9333Z" fill="white"/>
<path d="M110.262 31.8575L110.246 25.2212L107.005 30.7122H106.186L102.935 25.3067V31.8575H101.184V21.8447H102.694L106.624 28.4811L110.472 21.8447H111.984L112 31.8575H110.262Z" fill="white"/>
<path d="M13.711 15.128C13.5754 14.8689 13.5216 14.7938 13.4551 14.6746C10.2398 9.70963 2.49594 7.4526 0 6.47827V21.5597C4.63093 17.8541 8.42221 15.6955 13.711 15.128Z" fill="white"/>
<path d="M0.850098 22.3578L22.0311 31.8575L31.4721 22.3008V3.85327C31.2161 5.14892 29.6341 5.89004 28.4667 7.86979C26.9308 10.4766 26.7644 13.0083 26.7516 15.211V14.9518C26.7516 19.1135 23.4979 22.1919 19.3815 22.2878C16.1611 22.3629 11.0617 20.8108 9.09055 20.6164C4.51081 20.1629 0.850098 22.3578 0.850098 22.3578Z" fill="white"/>
<path d="M21.5753 9.72257C20.2953 11.3499 18.3652 11.1348 15.9434 10.0335C15.3444 9.7744 14.3896 9.41939 13.8033 9.21467C12.4056 8.7612 11.0514 8.35954 9.83286 8.0149C6.80597 7.23803 3.73868 6.63245 0.645234 6.20099L0.535156 6.18803L17.3105 0V3.18471H31.3517C31.0339 3.64814 30.6347 4.04864 30.1742 4.36635C30.1742 4.36635 25.3436 5.72937 23.9663 6.41866C22.1641 7.31784 22.4483 8.62386 21.5753 9.72257Z" fill="white"/>
</g>
<defs>
<clipPath id="clip0">
<rect width="112" height="32" fill="white"/>
</clipPath>
</defs>
</svg>
