<svg xmlns="http://www.w3.org/2000/svg" xmlns:xlink="http://www.w3.org/1999/xlink" width="500" zoomAndPan="magnify" viewBox="0 0 375 374.999991" height="500" preserveAspectRatio="xMidYMid meet" version="1.0"><defs><clipPath id="c833bca18d"><path d="M 51.6875 164.296875 L 85 164.296875 L 85 201 L 51.6875 201 Z M 51.6875 164.296875 " clip-rule="nonzero"/></clipPath><clipPath id="a99a4db2e6"><path d="M 84.945312 185.421875 L 84.492188 184.621094 C 76.527344 172.421875 57.742188 167.019531 51.6875 164.667969 L 51.6875 200.824219 C 62.925781 191.953125 72.113281 186.769531 84.945312 185.421875 " clip-rule="nonzero"/></clipPath><clipPath id="4db4f8fae8"><path d="M 53.75 158.105469 L 128.019531 158.105469 L 128.019531 225.496094 L 53.75 225.496094 Z M 53.75 158.105469 " clip-rule="nonzero"/></clipPath><clipPath id="1cfa269c7c"><path d="M 53.75 202.734375 L 105.121094 225.496094 L 128.019531 202.597656 L 128.019531 158.394531 C 127.386719 161.503906 123.5625 163.277344 120.730469 168.007812 C 117.003906 174.253906 116.605469 180.332031 116.578125 185.597656 L 116.578125 184.980469 C 116.578125 194.953125 108.683594 202.335938 98.699219 202.558594 C 90.886719 202.734375 78.523438 199.023438 73.734375 198.554688 C 62.636719 197.46875 53.75 202.722656 53.75 202.722656 " clip-rule="nonzero"/></clipPath><clipPath id="3c869cf1c3"><path d="M 53.0625 149.167969 L 128 149.167969 L 128 176 L 53.0625 176 Z M 53.0625 149.167969 " clip-rule="nonzero"/></clipPath><clipPath id="25aea7fa74"><path d="M 104.019531 172.464844 C 100.898438 176.355469 96.234375 175.847656 90.363281 173.207031 C 88.90625 172.546875 86.59375 171.734375 85.164062 171.242188 L 75.539062 168.367188 C 64.824219 165.585938 54.960938 164.210938 53.257812 163.992188 L 53.078125 163.964844 L 93.664062 149.167969 L 93.664062 156.800781 L 127.71875 156.800781 C 127.152344 157.625 126.234375 158.699219 124.855469 159.632812 C 124.855469 159.632812 113.152344 162.90625 109.796875 164.554688 C 105.421875 166.714844 106.109375 169.835938 104.007812 172.476562 " clip-rule="nonzero"/></clipPath><clipPath id="d770560c58"><path d="M 157.125 157.058594 L 208 157.058594 L 208 190 L 157.125 190 Z M 157.125 157.058594 " clip-rule="nonzero"/></clipPath><clipPath id="bda156f780"><path d="M 207.972656 157.609375 L 197.558594 189.40625 L 189.664062 189.40625 L 182.664062 167.871094 L 175.445312 189.40625 L 167.578125 189.40625 L 157.125 157.609375 L 164.757812 157.609375 L 171.9375 179.957031 L 179.433594 157.609375 L 186.253906 157.609375 L 193.53125 180.152344 L 200.929688 157.609375 L 207.972656 157.609375 " clip-rule="nonzero"/></clipPath><clipPath id="3ed07e27fc"><path d="M 209.386719 157.058594 L 245 157.058594 L 245 190 L 209.386719 190 Z M 209.386719 157.058594 " clip-rule="nonzero"/></clipPath><clipPath id="dd9602379d"><path d="M 232.191406 182.394531 C 233.703125 181.527344 234.898438 180.328125 235.753906 178.777344 C 236.605469 177.222656 237.046875 175.476562 237.046875 173.507812 C 237.046875 171.542969 236.617188 169.78125 235.753906 168.242188 C 234.886719 166.699219 233.703125 165.488281 232.191406 164.625 C 230.675781 163.757812 228.972656 163.332031 227.101562 163.332031 C 225.230469 163.332031 223.527344 163.757812 222.011719 164.625 C 220.5 165.488281 219.304688 166.6875 218.449219 168.242188 C 217.597656 169.792969 217.160156 171.542969 217.160156 173.507812 C 217.160156 175.476562 217.585938 177.234375 218.449219 178.777344 C 219.316406 180.316406 220.5 181.527344 222.011719 182.394531 C 223.527344 183.257812 225.21875 183.6875 227.101562 183.6875 C 228.984375 183.6875 230.675781 183.257812 232.191406 182.394531 M 218.175781 187.824219 C 215.523438 186.410156 213.445312 184.441406 211.945312 181.9375 C 210.445312 179.4375 209.691406 176.628906 209.691406 173.507812 C 209.691406 170.386719 210.445312 167.582031 211.945312 165.078125 C 213.445312 162.574219 215.523438 160.621094 218.175781 159.191406 C 220.832031 157.761719 223.800781 157.058594 227.101562 157.058594 C 230.402344 157.058594 233.375 157.773438 236 159.191406 C 238.628906 160.609375 240.71875 162.574219 242.230469 165.078125 C 243.742188 167.582031 244.5 170.386719 244.5 173.507812 C 244.5 176.628906 243.742188 179.4375 242.230469 181.9375 C 240.71875 184.441406 238.640625 186.394531 236 187.824219 C 233.359375 189.253906 230.402344 189.957031 227.101562 189.957031 C 223.800781 189.957031 220.816406 189.242188 218.175781 187.824219 " clip-rule="nonzero"/></clipPath><clipPath id="c116af4f0d"><path d="M 250.042969 157.609375 L 257.398438 157.609375 L 257.398438 183.410156 L 250.042969 183.410156 Z M 250.042969 183.410156 L 273.355469 183.410156 L 273.355469 189.40625 L 250.042969 189.40625 Z M 250.042969 183.410156 " clip-rule="nonzero"/></clipPath><clipPath id="38ce685688"><path d="M 279 157.058594 L 308.410156 157.058594 L 308.410156 190 L 279 190 Z M 279 157.058594 " clip-rule="nonzero"/></clipPath><clipPath id="4707ff6be4"><path d="M 308.410156 157.609375 L 308.410156 189.40625 L 302.359375 189.40625 L 286.503906 170.097656 L 286.503906 189.40625 L 279.242188 189.40625 L 279.242188 157.609375 L 285.332031 157.609375 L 301.148438 176.917969 L 301.148438 157.609375 L 308.410156 157.609375 " clip-rule="nonzero"/></clipPath><clipPath id="a36f388b8d"><path d="M 315.949219 157.609375 L 323.304688 157.609375 L 323.304688 189.40625 L 315.949219 189.40625 Z M 315.949219 157.609375 " clip-rule="nonzero"/></clipPath><clipPath id="37787da82a"><path d="M 157.125 201.070312 L 183 201.070312 L 183 226 L 157.125 226 Z M 157.125 201.070312 " clip-rule="nonzero"/></clipPath><clipPath id="3c1629b112"><path d="M 174.359375 220.847656 C 175.636719 220.132812 176.640625 219.128906 177.371094 217.835938 C 178.097656 216.542969 178.46875 215.097656 178.46875 213.503906 C 178.46875 211.90625 178.097656 210.464844 177.371094 209.171875 C 176.640625 207.878906 175.636719 206.875 174.359375 206.160156 C 173.078125 205.441406 171.636719 205.070312 170.039062 205.070312 C 168.445312 205.070312 167 205.429688 165.722656 206.160156 C 164.441406 206.886719 163.4375 207.890625 162.710938 209.171875 C 161.980469 210.449219 161.609375 211.90625 161.609375 213.503906 C 161.609375 215.097656 161.980469 216.542969 162.710938 217.835938 C 163.4375 219.128906 164.441406 220.132812 165.722656 220.847656 C 167 221.5625 168.445312 221.933594 170.039062 221.933594 C 171.636719 221.933594 173.078125 221.574219 174.359375 220.847656 M 163.4375 224.242188 C 161.472656 223.171875 159.929688 221.699219 158.804688 219.816406 C 157.675781 217.929688 157.125 215.828125 157.125 213.503906 C 157.125 211.179688 157.6875 209.058594 158.804688 207.175781 C 159.917969 205.292969 161.472656 203.820312 163.4375 202.761719 C 165.40625 201.703125 167.605469 201.164062 170.054688 201.164062 C 172.5 201.164062 174.703125 201.703125 176.667969 202.761719 C 178.636719 203.820312 180.175781 205.292969 181.289062 207.164062 C 182.402344 209.03125 182.96875 211.152344 182.96875 213.503906 C 182.96875 215.855469 182.402344 217.972656 181.289062 219.84375 C 180.175781 221.714844 178.636719 223.183594 176.667969 224.242188 C 174.703125 225.304688 172.5 225.839844 170.054688 225.839844 C 167.605469 225.839844 165.40625 225.304688 163.4375 224.242188 " clip-rule="nonzero"/></clipPath><clipPath id="b2aab0dc5f"><path d="M 187.382812 201.070312 L 211.449219 201.070312 L 211.449219 225.824219 L 187.382812 225.824219 Z M 187.382812 201.070312 " clip-rule="nonzero"/></clipPath><clipPath id="ab5ef3feca"><path d="M 197.972656 221.726562 C 199.734375 221.726562 201.273438 221.398438 202.621094 220.722656 C 203.96875 220.050781 204.988281 219.085938 205.703125 217.847656 C 206.417969 216.609375 206.773438 215.152344 206.773438 213.515625 C 206.773438 211.878906 206.417969 210.421875 205.703125 209.183594 C 204.988281 207.945312 203.957031 206.984375 202.621094 206.308594 C 201.285156 205.636719 199.734375 205.304688 197.972656 205.304688 L 192.140625 205.304688 L 192.140625 221.726562 L 197.972656 221.726562 M 187.699219 201.511719 L 198.179688 201.511719 C 200.738281 201.511719 203.007812 202.003906 205 202.996094 C 206.996094 203.984375 208.535156 205.386719 209.621094 207.203125 C 210.707031 209.019531 211.257812 211.109375 211.257812 213.488281 C 211.257812 215.867188 210.707031 217.957031 209.621094 219.773438 C 208.535156 221.589844 206.980469 222.992188 205 223.996094 C 203.019531 225 200.738281 225.480469 198.179688 225.480469 L 187.699219 225.480469 L 187.699219 201.511719 " clip-rule="nonzero"/></clipPath><clipPath id="785c1cd8d8"><path d="M 225.203125 201.070312 L 243 201.070312 L 243 225.824219 L 225.203125 225.824219 Z M 225.203125 201.070312 " clip-rule="nonzero"/></clipPath><clipPath id="368dc9f295"><path d="M 229.90625 205.238281 L 229.90625 212.539062 L 241.488281 212.539062 L 241.488281 216.308594 L 229.90625 216.308594 L 229.90625 225.496094 L 225.453125 225.496094 L 225.453125 201.511719 L 242.960938 201.511719 L 242.960938 205.25 L 229.90625 205.238281 " clip-rule="nonzero"/></clipPath><clipPath id="9fba1714e4"><path d="M 247.210938 201.070312 L 266 201.070312 L 266 225.824219 L 247.210938 225.824219 Z M 247.210938 201.070312 " clip-rule="nonzero"/></clipPath><clipPath id="e4c19fca89"><path d="M 265.859375 221.753906 L 265.859375 225.496094 L 247.871094 225.496094 L 247.871094 201.511719 L 265.378906 201.511719 L 265.378906 205.25 L 252.324219 205.25 L 252.324219 211.480469 L 263.90625 211.480469 L 263.90625 215.152344 L 252.324219 215.152344 L 252.324219 221.769531 L 265.859375 221.753906 " clip-rule="nonzero"/></clipPath><clipPath id="b6adf08443"><path d="M 271.277344 201.070312 L 291.90625 201.070312 L 291.90625 225.824219 L 271.277344 225.824219 Z M 271.277344 201.070312 " clip-rule="nonzero"/></clipPath><clipPath id="48329b0944"><path d="M 285.5 206.503906 C 284.496094 205.675781 283.023438 205.265625 281.082031 205.265625 L 275.871094 205.265625 L 275.871094 214.824219 L 281.082031 214.824219 C 283.023438 214.824219 284.496094 214.410156 285.5 213.570312 C 286.503906 212.734375 287.011719 211.550781 287.011719 210.023438 C 287.011719 208.496094 286.503906 207.3125 285.5 206.488281 M 287.105469 225.46875 L 282.210938 218.441406 C 282.003906 218.46875 281.703125 218.46875 281.289062 218.46875 L 275.871094 218.46875 L 275.871094 225.453125 L 271.414062 225.453125 L 271.414062 201.511719 L 281.289062 201.511719 C 283.367188 201.511719 285.183594 201.855469 286.722656 202.542969 C 288.261719 203.230469 289.445312 204.207031 290.269531 205.484375 C 291.097656 206.761719 291.507812 208.277344 291.507812 210.035156 C 291.507812 211.839844 291.066406 213.394531 290.1875 214.699219 C 289.308594 216.003906 288.042969 216.96875 286.40625 217.613281 L 291.90625 225.496094 L 287.105469 225.46875 " clip-rule="nonzero"/></clipPath><clipPath id="4383a2035a"><path d="M 297 201.070312 L 323.539062 201.070312 L 323.539062 225.824219 L 297 225.824219 Z M 297 201.070312 " clip-rule="nonzero"/></clipPath><clipPath id="316e4f0ea4"><path d="M 319.097656 225.496094 L 319.070312 209.597656 L 311.1875 222.757812 L 309.195312 222.757812 L 301.3125 209.804688 L 301.3125 225.496094 L 297.066406 225.496094 L 297.066406 201.511719 L 300.738281 201.511719 L 310.269531 217.410156 L 319.621094 201.511719 L 323.292969 201.511719 L 323.320312 225.496094 L 319.097656 225.496094 " clip-rule="nonzero"/></clipPath></defs><rect x="-37.5" width="450" fill="#ffffff" y="-37.499999" height="449.999989" fill-opacity="1"/><rect x="-37.5" width="450" fill="#ffffff" y="-37.499999" height="449.999989" fill-opacity="1"/><rect x="-37.5" width="450" fill="#ffffff" y="-37.499999" height="449.999989" fill-opacity="1"/><g clip-path="url(#c833bca18d)"><g clip-path="url(#a99a4db2e6)"><path fill="#000000" d="M 44.8125 142.289062 L 134.898438 142.289062 L 134.898438 232.375 L 44.8125 232.375 Z M 44.8125 142.289062 " fill-opacity="1" fill-rule="nonzero"/></g></g><g clip-path="url(#4db4f8fae8)"><g clip-path="url(#1cfa269c7c)"><path fill="#000000" d="M 44.8125 142.289062 L 134.898438 142.289062 L 134.898438 232.375 L 44.8125 232.375 Z M 44.8125 142.289062 " fill-opacity="1" fill-rule="nonzero"/></g></g><g clip-path="url(#3c869cf1c3)"><g clip-path="url(#25aea7fa74)"><path fill="#000000" d="M 44.8125 142.289062 L 134.898438 142.289062 L 134.898438 232.375 L 44.8125 232.375 Z M 44.8125 142.289062 " fill-opacity="1" fill-rule="nonzero"/></g></g><g clip-path="url(#d770560c58)"><g clip-path="url(#bda156f780)"><path fill="#000000" d="M 150.25 150.183594 L 330.417969 150.183594 L 330.417969 232.703125 L 150.25 232.703125 Z M 150.25 150.183594 " fill-opacity="1" fill-rule="nonzero"/></g></g><g clip-path="url(#3ed07e27fc)"><g clip-path="url(#dd9602379d)"><path fill="#000000" d="M 150.25 150.183594 L 330.417969 150.183594 L 330.417969 232.703125 L 150.25 232.703125 Z M 150.25 150.183594 " fill-opacity="1" fill-rule="nonzero"/></g></g><g clip-path="url(#c116af4f0d)"><path fill="#000000" d="M 150.25 150.183594 L 330.417969 150.183594 L 330.417969 232.703125 L 150.25 232.703125 Z M 150.25 150.183594 " fill-opacity="1" fill-rule="nonzero"/></g><g clip-path="url(#38ce685688)"><g clip-path="url(#4707ff6be4)"><path fill="#000000" d="M 150.25 150.183594 L 330.417969 150.183594 L 330.417969 232.703125 L 150.25 232.703125 Z M 150.25 150.183594 " fill-opacity="1" fill-rule="nonzero"/></g></g><g clip-path="url(#a36f388b8d)"><path fill="#000000" d="M 150.25 150.183594 L 330.417969 150.183594 L 330.417969 232.703125 L 150.25 232.703125 Z M 150.25 150.183594 " fill-opacity="1" fill-rule="nonzero"/></g><g clip-path="url(#37787da82a)"><g clip-path="url(#3c1629b112)"><path fill="#000000" d="M 150.25 150.183594 L 330.417969 150.183594 L 330.417969 232.703125 L 150.25 232.703125 Z M 150.25 150.183594 " fill-opacity="1" fill-rule="nonzero"/></g></g><g clip-path="url(#b2aab0dc5f)"><g clip-path="url(#ab5ef3feca)"><path fill="#000000" d="M 150.25 150.183594 L 330.417969 150.183594 L 330.417969 232.703125 L 150.25 232.703125 Z M 150.25 150.183594 " fill-opacity="1" fill-rule="nonzero"/></g></g><g clip-path="url(#785c1cd8d8)"><g clip-path="url(#368dc9f295)"><path fill="#000000" d="M 150.25 150.183594 L 330.417969 150.183594 L 330.417969 232.703125 L 150.25 232.703125 Z M 150.25 150.183594 " fill-opacity="1" fill-rule="nonzero"/></g></g><g clip-path="url(#9fba1714e4)"><g clip-path="url(#e4c19fca89)"><path fill="#000000" d="M 150.25 150.183594 L 330.417969 150.183594 L 330.417969 232.703125 L 150.25 232.703125 Z M 150.25 150.183594 " fill-opacity="1" fill-rule="nonzero"/></g></g><g clip-path="url(#b6adf08443)"><g clip-path="url(#48329b0944)"><path fill="#000000" d="M 150.25 150.183594 L 330.417969 150.183594 L 330.417969 232.703125 L 150.25 232.703125 Z M 150.25 150.183594 " fill-opacity="1" fill-rule="nonzero"/></g></g><g clip-path="url(#4383a2035a)"><g clip-path="url(#316e4f0ea4)"><path fill="#000000" d="M 150.25 150.183594 L 330.417969 150.183594 L 330.417969 232.703125 L 150.25 232.703125 Z M 150.25 150.183594 " fill-opacity="1" fill-rule="nonzero"/></g></g></svg>